<svg class="mass" viewBox="0 0 1600 1056" xmlns="http://www.w3.org/2000/svg" shape-rendering="geometricPrecision" aria-hidden="true"><rect x="0" y="0" width="1600" height="1056" class="plate"/><path class="g-water" d="M859.4 762.9L845.2 748.8L832.7 741.2L809.8 734.2L803.3 728.6L806.0 717.2L816.3 709.0L817.8 701.2L816.2 690.9L810.5 684.9L808.4 671.9L807.8 655.9L813.0 649.4L814.0 644.7L810.7 636.3L812.4 628.0L813.7 620.7L805.7 616.7L794.6 611.2L771.5 604.4L745.0 590.8L737.0 581.8L736.0 567.9L743.6 561.6L746.6 554.0L755.6 543.0L752.2 531.0L745.9 521.0L735.3 516.1L726.3 514.4L712.9 514.6L706.9 517.4L697.0 521.9L679.1 524.8L654.0 522.8L631.5 520.1L606.8 516.7L577.1 506.9L555.0 504.5L524.2 505.1L505.6 507.2L473.6 506.6L430.5 503.9L409.2 497.8L383.2 492.6L364.1 490.0L342.7 494.2L317.2 499.2L291.6 499.0L257.7 500.9L203.0 502.3L176.2 501.2L138.6 500.2L93.5 497.3L48.6 500.9L18.9 497.1L-26.6 498.2L-56.0 495.6L-78.6 490.8L-93.9 480.7L-109.8 465.6L-117.7 447.8L-121.0 428.3L-123.7 402.4L-123.3 380.6L-128.6 370.1L-137.2 365.3L-161.4 353.1L-171.9 344.1L-191.9 334.4L-218.7 324.5L-242.1 319.4L-276.8 316.3L-325.9 318.5L-359.8 324.7L-399.8 336.8L-452.3 357.7L-501.7 372.7L-529.9 379.1L-578.1 387.3L-630.6 390.6L-683.2 391.1L-742.9 392.6L-787.1 391.1L-829.4 383.9L-860.1 376.1L-894.0 375.4L-925.6 379.7L-952.7 386.9L-1005.8 391.0L-1039.5 398.2L-1098.4 412.1L-1135.5 424.6L-1182.6 442.7L-1220.8 457.5L-1262.0 464.5L-1299.2 467.6L-1311.6 474.3L-1333.6 477.1L-1402.2 487.0L-1435.3 493.3L-1470.8 499.3L-1500.4 505.0L-1515.2 508.4L-1539.5 509.6L-1581.8 505.5L-1612.4 500.5L-1639.5 494.2L-1660.9 488.4L-1717.4 475.6L-1752.6 465.4L-1783.7 452.7L-1821.7 441.5L-1860.8 430.4L-1902.5 404.5L-1929.9 391.4L-1940.0 384.0L-1953.5 378.0L-1979.4 362.5L-2001.8 355.3L-2061.9 332.7L-2092.9 318.0L-2105.2 316.8L-2122.0 312.7L-2150.3 299.3L-2171.4 288.5L-2172.8 276.3L-2191.7 265.8L-2212.1 253.1L-2225.3 241.6L-2237.8 225.1L-2237.9 202.4L-2231.6 170.1L-2211.8 141.5L-2182.6 97.9L-2161.0 87.5L-2150.7 74.6L-2113.3 56.4L-2043.1 12.7L-2000.9 -9.8L-1950.9 -44.5L-1911.6 -54.7L-1887.8 -66.3L-1878.3 -88.7L-1868.6 -100.1L-1838.7 -124.3L-1800.8 -140.9L-1786.4 -157.7L-1756.2 -191.6L-1732.3 -216.6L-1718.5 -245.7L-1706.5 -260.0L-1690.5 -273.7L-1675.9 -284.2L-1670.2 -298.2L-1654.5 -318.0L-1648.8 -338.9L-1643.0 -357.5L-1638.1 -373.9L-1635.7 -396.3L-1632.5 -421.1L-1631.0 -438.3L-1630.4 -458.8L-1620.9 -472.0L-1619.0 -490.4L-1616.1 -506.9L-1618.7 -518.8L-1623.3 -534.0L-1637.5 -548.8L-1655.7 -563.1L-1678.8 -579.9L-1709.0 -596.4L-1726.5 -618.8L-1738.8 -631.2L-1760.8 -654.6L-1772.6 -671.4L-1778.0 -683.6L-1783.6 -709.0L-1779.2 -726.7L-1776.6 -750.9L-1762.7 -761.4L-1750.1 -778.9L-1737.6 -795.5L-1723.9 -811.9L-1711.0 -820.8L-1691.9 -832.0L-1684.2 -843.5L-1683.4 -853.8L-1680.0 -862.6L-1672.2 -870.3L-1668.9 -881.8L-1665.0 -897.7L-1664.2 -912.9L-1659.4 -929.5L-1649.3 -948.6L-1645.6 -963.9L-1633.5 -974.0L-1621.3 -988.2L-1599.4 -998.0L-1566.0 -1010.4L-1542.5 -1017.0L-1523.3 -1020.8L-1507.9 -1027.0L-1489.1 -1040.1L-1447.9 -1057.8L-1429.2 -1068.7L-1410.1 -1078.0L-1347.3 -1099.4L-1291.4 -1119.5L-1263.1 -1128.1L-1243.0 -1131.3L-1216.9 -1132.1L-1166.7 -1129.8L-1119.3 -1126.5L-1033.0 -1122.6L-987.7 -1119.1L-975.3 -1127.4L-950.1 -1130.3L-917.6 -1134.1L-894.9 -1134.7L-879.3 -1133.0L-861.7 -1132.7L-849.8 -1136.0L-835.4 -1136.8L-815.0 -1140.5L-799.1 -1144.3L-773.7 -1142.8L-732.6 -1145.7L-702.1 -1143.5L-664.7 -1136.4L-630.5 -1128.4L-577.0 -1112.6L-542.5 -1095.1L-508.0 -1080.6L-458.4 -1062.4L-426.0 -1047.9L-411.1 -1043.9L-378.1 -1038.6L-354.9 -1034.5L-335.1 -1039.9L-306.8 -1041.9L-297.4 -1049.0L-283.3 -1053.9L-262.0 -1058.6L-237.6 -1067.7L-222.4 -1075.0L-218.6 -1076.8L-194.8 -1093.4L-175.1 -1109.8L-162.5 -1131.6L-153.0 -1150.9L-143.9 -1189.4L-138.5 -1216.4L-130.2 -1232.4L-123.2 -1243.8L-124.6 -1257.6L-129.3 -1268.7L-139.9 -1276.6L-148.5 -1286.7L-149.7 -1296.4L-159.3 -1307.5L-168.9 -1321.0L-181.8 -1331.4L-204.9 -1353.6L-220.4 -1363.9L-234.3 -1368.8L-247.7 -1377.0L-266.2 -1383.2L-283.3 -1388.3L-308.0 -1398.4L-330.0 -1408.9L-349.8 -1420.9L-381.0 -1439.8L-408.3 -1451.0L-426.6 -1465.0L-453.5 -1479.6L-472.3 -1489.6L-481.9 -1500.7L-491.7 -1517.5L-491.7 -1526.7L-493.3 -1533.7L-493.4 -1548.9L-489.4 -1558.1L-477.9 -1564.6L-463.3 -1569.2L-436.2 -1578.3L-405.6 -1582.5L-384.9 -1584.0L-357.6 -1586.3L-329.4 -1593.4L-286.4 -1603.1L-267.5 -1603.4L-248.8 -1603.1L-224.4 -1598.8L-191.8 -1591.4L-157.3 -1582.7L-117.1 -1570.7L-79.9 -1560.3L-37.3 -1550.6L-13.8 -1543.8L42.0 -1532.9L84.6 -1520.4L99.0 -1520.7L119.0 -1516.4L149.9 -1508.7L191.4 -1503.6L217.7 -1492.3L241.3 -1496.8L255.5 -1496.2L270.4 -1493.0L281.7 -1497.7L292.1 -1497.6L313.3 -1493.7L368.1 -1492.6L450.4 -1495.1L492.0 -1503.7L513.5 -1509.3L523.3 -1514.8L525.7 -1530.0L542.0 -1540.3L550.7 -1550.0L549.8 -1562.1L559.2 -1571.5L568.1 -1582.5L568.8 -1590.7L574.0 -1596.4L579.0 -1607.2L576.9 -1617.9L569.1 -1635.6L558.5 -1650.2L545.7 -1662.4L525.4 -1677.3L500.6 -1692.8L477.1 -1709.2L449.6 -1725.5L436.1 -1732.7L409.3 -1748.4L386.8 -1754.5L366.2 -1765.2L358.3 -1773.4L348.3 -1782.7L332.1 -1790.8L319.4 -1804.7L311.7 -1816.6L304.9 -1831.4L300.3 -1845.3L298.0 -1858.9L300.5 -1870.5L308.4 -1889.1L319.4 -1902.2L332.8 -1917.9L341.0 -1937.0L350.1 -1943.2L381.6 -1952.6L406.9 -1965.4L446.2 -1978.6L475.7 -1987.8L501.5 -1988.6L529.7 -1983.0L574.0 -1983.7L626.2 -1976.9L683.4 -1967.9L713.4 -1965.9L731.9 -1968.5L748.3 -1973.7L769.0 -1982.9L787.1 -1991.9L804.7 -2003.7L819.2 -2017.4L834.5 -2029.3L861.6 -2045.7L868.0 -2052.9L865.9 -2071.0L871.2 -2081.2L858.2 -2097.7L827.9 -2115.3L784.4 -2138.1L752.2 -2157.3L697.2 -2203.4L675.7 -2223.1L650.0 -2252.6L641.4 -2275.6L547.0 -2368.1L508.1 -2411.9L477.6 -2439.9L455.0 -2467.2L446.3 -2493.6L449.1 -2512.8L464.1 -2528.8L487.8 -2544.4L512.6 -2571.4L552.4 -2599.4L561.2 -2619.1L580.0 -2644.1L594.3 -2668.6L603.1 -2692.5L613.1 -2716.6L615.3 -2734.0L615.3 -2748.9L608.9 -2760.8L587.7 -2784.3L557.8 -2817.4L527.4 -2864.9L507.3 -2887.4L495.1 -2901.0L489.4 -2920.3L475.7 -2933.6L473.3 -2941.6L470.4 -2955.1L469.2 -2965.8L476.4 -2980.4L498.9 -2991.9L531.5 -2999.7L568.9 -3004.4L638.7 -3004.2L728.9 -3004.7L773.4 -3008.8L795.3 -3005.1L827.8 -3001.5L865.7 -3005.7L901.9 -3020.7L928.6 -3027.9L940.7 -3041.7L959.0 -3064.9L972.2 -3100.5L979.1 -3123.6L996.2 -3144.6L1007.8 -3176.2L1015.6 -3207.1L1030.8 -3223.2L1036.2 -3254.4L1034.5 -3278.0L1036.6 -3302.5L1047.2 -3337.6L1058.1 -3368.9L1076.0 -3408.4L1082.0 -3445.3L1075.6 -3497.6L1062.1 -3513.4L1068.7 -3526.1L1063.5 -3544.0L1046.3 -3568.9L1041.4 -3589.5L1036.0 -3618.2L1025.3 -3638.2L1006.3 -3663.3L989.7 -3690.7L967.9 -3712.8L939.7 -3725.6L892.0 -3724.9L828.2 -3717.4L724.2 -3706.6L657.0 -3699.6L574.7 -3694.1L506.1 -3693.4L429.9 -3689.8L376.5 -3683.3L317.4 -3680.3L204.0 -3677.0L142.2 -3671.5L108.9 -3667.1L71.6 -3653.2L10.3 -3630.6L-72.0 -3605.6L-199.1 -3570.9L-335.7 -3539.1L-393.5 -3531.1L-430.9 -3533.4L-498.9 -3569.8L-536.3 -3583.3L-564.9 -3601.3L-581.7 -3621.7L-702.5 -3691.9L-815.0 -3749.8L-866.6 -3762.1L-913.6 -3770.8L-955.9 -3783.5L-1041.3 -3803.1L-1143.8 -3830.5L-1238.3 -3863.8L-1274.6 -3869.0L-1313.8 -3885.6L-1331.1 -3910.1L-1373.7 -3946.8L-1415.9 -3984.8L-1418.7 -4010.8L-1428.0 -4049.5L-1431.2 -4077.2L-1469.5 -4129.4L-1500.2 -4182.8L-1520.9 -4204.9L-1522.3 -4236.6L-1507.5 -4269.8L-1505.2 -4299.9L-1511.3 -4318.1L-1523.4 -4333.1L-1550.1 -4349.1L-1605.1 -4361.9L-1648.9 -4363.7L-1688.6 -4358.3L-1727.8 -4339.8L-1781.5 -4285.6L-1860.2 -4214.8L-1984.1 -4143.0L-2060.9 -4110.5L-2134.9 -4095.1L-2181.1 -4092.9L-2234.4 -4101.0L-2284.3 -4137.6L-2301.6 -4161.5L-2301.3 -4198.0L-2278.8 -4215.4L-2276.2 -4255.3L-2250.0 -4268.9L-2233.6 -4286.1L-2211.8 -4315.6L-2180.7 -4350.7L-2154.1 -4373.4L-2107.0 -4406.7L-2093.9 -4429.7L-2059.4 -4459.6L-2004.8 -4508.2L-1951.9 -4560.8L-1916.0 -4612.3L-1878.3 -4660.1L-1858.6 -4698.5L-1856.4 -4705.0L-1857.6 -4734.5L-1872.9 -4758.7L-1891.1 -4768.8L-1932.7 -4767.1L-2000.1 -4757.4L-2050.1 -4757.3L-2094.8 -4767.1L-2122.9 -4784.6L-2117.6 -4805.1L-2090.7 -4828.6L-2049.4 -4850.1L-2002.1 -4861.9L-1922.8 -4874.1L-1847.0 -4871.6L-1784.1 -4884.8L-1730.7 -4892.6L-1649.5 -4906.3L-1619.6 -4920.2L-1576.9 -4928.7L-1536.8 -4935.9L-1509.1 -4941.2L-1426.6 -4951.9L-1378.3 -4972.6L-1317.9 -4988.0L-1246.3 -5001.0L-1168.6 -5005.3L-1059.8 -5005.7L-969.1 -4992.4L-893.5 -4994.8L-840.9 -5001.0L-784.2 -5008.3L-721.5 -5013.5L-699.5 -5025.5L-642.9 -5023.4L-550.1 -5033.9L-527.6 -5037.7L-502.6 -5041.8L-483.7 -5056.5L-474.1 -5070.8L-470.8 -5091.7L-475.9 -5113.6L-485.9 -5133.5L-495.9 -5154.5L-494.6 -5172.1L-495.3 -5192.4L-494.4 -5221.1L-487.7 -5240.8L-477.5 -5266.8L-466.0 -5287.4L-452.4 -5307.6L-438.0 -5331.1L-434.1 -5357.8L-423.2 -5397.4L-414.5 -5420.3L-421.8 -5441.5L-425.7 -5460.4L-435.3 -5479.8L-463.4 -5506.2L-490.3 -5519.4L-508.9 -5534.0L-547.0 -5545.9L-602.5 -5562.2L-683.1 -5586.4L-733.9 -5607.8L-777.5 -5607.8L-796.1 -5620.0L-848.7 -5625.0L-898.3 -5637.6L-936.9 -5650.0L-957.2 -5666.4L-967.1 -5693.3L-971.9 -5711.3L-961.7 -5735.0L-950.3 -5762.2L-914.4 -5797.1L-881.4 -5810.7L-844.5 -5817.2L-796.5 -5819.3L-757.6 -5818.5L-722.5 -5811.6L-659.5 -5801.6L-565.0 -5787.2L-485.4 -5789.6L-454.4 -5790.5L-441.3 -5765.6L-405.3 -5749.4L-351.2 -5731.0L-311.9 -5721.4L-288.8 -5711.6L-242.3 -5706.3L-200.0 -5699.0L-144.5 -5693.3L-68.6 -5688.8L-26.5 -5690.0L16.9 -5702.2L40.7 -5699.3L78.1 -5691.7L127.8 -5672.6L165.1 -5645.5L195.2 -5620.7L229.2 -5598.9L263.0 -5566.7L288.5 -5534.2L323.0 -5517.8L359.2 -5508.5L393.5 -5503.6L447.5 -5479.9L483.5 -5464.3L510.3 -5451.4L528.1 -5442.1L570.6 -5429.3L606.1 -5419.5L639.4 -5410.3L686.1 -5403.1L727.8 -5400.5L748.7 -5392.3L767.9 -5391.9L824.0 -5400.9L877.5 -5412.7L944.8 -5429.6L1007.5 -5446.1L1075.0 -5460.4L1138.1 -5468.7L1167.8 -5467.3L1212.0 -5475.1L1270.8 -5484.4L1340.6 -5489.2L1363.4 -5485.6L1414.2 -5475.3L1446.3 -5463.8L1478.7 -5440.7L1494.1 -5406.3L1505.4 -5379.2L1537.2 -5357.3L1555.2 -5352.1L1575.8 -5351.4L1614.1 -5359.4L1647.1 -5354.7L1677.5 -5358.5L1719.9 -5365.8L1757.2 -5376.7L1789.2 -5386.6L1813.2 -5399.0L1841.2 -5418.8L1863.1 -5435.1L1883.9 -5445.4L1910.0 -5450.8L1949.6 -5451.6L1996.0 -5451.8L2042.3 -5455.1L2080.7 -5451.8L2097.9 -5433.9L2101.1 -5432.5L2130.9 -5419.6L2166.7 -5400.6L2196.4 -5372.1L2196.4 -5349.6L2196.8 -5322.6L2184.2 -5312.0L2166.2 -5309.5L2135.9 -5305.5L2110.9 -5294.8L2101.7 -5284.3L2103.0 -5271.7L2118.0 -5259.0L2160.5 -5243.2L2208.5 -5208.0L2234.4 -5185.1L2245.1 -5156.8L2233.5 -5140.5L2198.4 -5128.0L2158.7 -5114.3L2104.2 -5109.4L2030.5 -5120.5L1994.9 -5136.3L1957.6 -5159.7L1917.1 -5183.5L1888.9 -5191.6L1845.8 -5189.8L1771.6 -5183.6L1734.3 -5168.0L1705.9 -5143.0L1702.1 -5115.7L1703.1 -5072.0L1706.3 -5039.6L1690.7 -4989.0L1676.3 -4943.0L1681.7 -4909.0L1710.6 -4884.2L1772.8 -4878.6L1821.7 -4879.8L1844.4 -4894.6L1857.4 -4913.7L1876.0 -4928.6L1900.4 -4931.1L1929.3 -4931.1L1961.2 -4925.7L1989.1 -4919.8L2020.0 -4920.1L2065.7 -4934.0L2093.6 -4956.5L2127.6 -4982.6L2140.8 -4999.1L2166.6 -5025.5L2200.2 -5062.1L2228.5 -5084.7L2268.2 -5096.1L2315.2 -5099.2L2429.7 -5105.4L2496.6 -5110.9L2596.4 -5127.7L2662.6 -5134.0L2710.3 -5134.0L2734.9 -5127.3L2762.6 -5109.1L2766.9 -5082.7L2759.0 -5059.0L2737.4 -5033.6L2698.2 -5005.8L2672.6 -4982.3L2652.9 -4964.2L2637.7 -4939.1L2641.9 -4916.3L2671.5 -4874.9L2709.1 -4833.3L2741.3 -4801.0L2769.1 -4791.0L2808.0 -4769.4L2857.0 -4756.3L2929.4 -4722.3L2984.4 -4692.2L3005.6 -4671.9L3004.7 -4653.4L3006.8 -4626.9L3005.1 -4602.6L2980.8 -4579.9L2966.8 -4551.3L2931.2 -4497.9L2883.2 -4427.6L2849.5 -4380.5L2822.5 -4347.0L2794.8 -4281.3L2764.3 -4213.0L2736.2 -4153.4L2726.4 -4113.9L2744.1 -4079.5L2751.9 -4048.2L2774.9 -3971.6L2823.3 -3912.3L2849.2 -3858.8L2899.8 -3810.1L2928.7 -3755.2L2979.9 -3691.2L3036.7 -3624.4L3083.8 -3581.3L3127.2 -3555.5L3152.1 -3547.9L3175.6 -3547.8L3220.6 -3558.3L3281.4 -3576.7L3347.9 -3603.3L3395.9 -3630.2L3459.2 -3669.7L3485.8 -3697.0L3498.2 -3723.2L3531.9 -3759.1L3565.0 -3780.3L3563.6 -3799.0L3537.5 -3813.1L3502.3 -3834.9L3452.9 -3851.5L3372.8 -3868.6L3336.2 -3903.8L3286.6 -3933.6L3237.2 -3963.1L3190.3 -4000.7L3182.5 -4023.6L3194.9 -4052.1L3224.6 -4070.9L3264.8 -4081.7L3320.5 -4087.7L3383.1 -4082.2L3457.8 -4067.1L3514.6 -4048.2L3571.3 -4033.6L3619.1 -4029.4L3684.7 -4025.0L3758.2 -4025.3L3845.5 -4035.3Z"/><path class="g-water" d="M857.5 911.0L856.5 918.4L851.8 924.9L849.9 930.1L847.3 936.1L845.9 941.9L842.2 937.1L842.0 930.3L845.1 922.7L846.6 917.5L841.8 911.9L840.2 904.2L834.3 890.0L832.4 878.0L831.8 869.3L837.2 861.7L837.0 857.6L840.8 848.6L850.9 842.1L854.4 836.1L854.2 830.7L850.5 824.5L842.7 817.5L834.8 809.7L826.3 800.2L819.6 793.5L808.4 782.5L859.4 762.9L868.2 756.3L876.5 763.5L878.8 770.2L888.9 778.1L890.9 782.2L893.9 785.6L899.6 792.2L905.0 800.2L909.2 805.9L907.1 810.8L911.2 817.1L913.1 821.2L913.6 826.5L913.1 835.0L909.6 840.8L905.1 847.4L896.9 855.8L883.7 868.0L876.0 875.4L871.1 880.2L866.5 881.9L866.8 886.8L864.0 891.8L857.7 895.5L855.0 899.5L857.8 906.0Z"/><path class="g-green" d="M785.4 555.5L772.1 548.8L761.8 548.2L754.8 551.4L743.2 555.9L734.5 563.8L730.3 570.1L731.7 574.7L738.5 587.9L747.3 600.3L770.7 610.3L767.3 613.6L766.1 618.8L775.1 635.0L780.9 642.3L783.8 651.2L796.0 662.0L798.0 671.9L802.1 689.2L800.0 691.3L787.0 693.7L781.1 675.1L771.9 655.4L748.2 627.3L740.4 615.3L734.6 609.9L727.1 602.0L706.5 582.0L700.0 578.8L691.3 570.9L686.0 562.3L677.1 549.3L664.3 547.8L654.2 547.2L646.3 547.8L636.6 559.6L624.6 532.5L670.7 540.0L684.4 542.9L707.1 541.7L719.2 541.0L738.4 537.6L758.7 533.6L755.6 527.1L755.6 524.1L761.0 524.2L765.3 527.0L770.8 530.5L770.1 533.2L773.3 540.3L779.6 543.8L785.0 547.8Z"/><path class="gt" d="M637.1 544.4l1.4 -2.7M637.1 544.4l-1.3 -2.4M637.1 544.4l0 -3.1M774.9 638.1l1.4 -2.7M774.9 638.1l-1.3 -2.4M774.9 638.1l0 -3.1M769.2 531.6l1.4 -2.7M769.2 531.6l-1.3 -2.4M769.2 531.6l0 -3.1M748.7 551.1l1.4 -2.7M748.7 551.1l-1.3 -2.4M748.7 551.1l0 -3.1M712.3 572.9l1.4 -2.7M712.3 572.9l-1.3 -2.4M712.3 572.9l0 -3.1M721.4 557.2l1.4 -2.7M721.4 557.2l-1.3 -2.4M721.4 557.2l0 -3.1M779.1 653.9l1.4 -2.7M779.1 653.9l-1.3 -2.4M779.1 653.9l0 -3.1M703.4 565.1l1.4 -2.7M703.4 565.1l-1.3 -2.4M703.4 565.1l0 -3.1M783.6 669.1l1.4 -2.7M783.6 669.1l-1.3 -2.4M783.6 669.1l0 -3.1M746.1 602.2l1.4 -2.7M746.1 602.2l-1.3 -2.4M746.1 602.2l0 -3.1M766.8 622.7l1.4 -2.7M766.8 622.7l-1.3 -2.4M766.8 622.7l0 -3.1M782.0 552.0l1.4 -2.7M782.0 552.0l-1.3 -2.4M782.0 552.0l0 -3.1M758.1 633.1l1.4 -2.7M758.1 633.1l-1.3 -2.4M758.1 633.1l0 -3.1M701.1 551.3l1.4 -2.7M701.1 551.3l-1.3 -2.4M701.1 551.3l0 -3.1M725.0 599.7l1.4 -2.7M725.0 599.7l-1.3 -2.4M725.0 599.7l0 -3.1M798.7 680.7l1.4 -2.7M798.7 680.7l-1.3 -2.4M798.7 680.7l0 -3.1M796.5 665.2l1.4 -2.7M796.5 665.2l-1.3 -2.4M796.5 665.2l0 -3.1M758.3 606.1l1.4 -2.7M758.3 606.1l-1.3 -2.4M758.3 606.1l0 -3.1M712.6 586.4l1.4 -2.7M712.6 586.4l-1.3 -2.4M712.6 586.4l0 -3.1M749.9 537.9l1.4 -2.7M749.9 537.9l-1.3 -2.4M749.9 537.9l0 -3.1M691.7 570.6l1.4 -2.7M691.7 570.6l-1.3 -2.4M691.7 570.6l0 -3.1M701.6 576.8l1.4 -2.7M701.6 576.8l-1.3 -2.4M701.6 576.8l0 -3.1M753.6 618.5l1.4 -2.7M753.6 618.5l-1.3 -2.4M753.6 618.5l0 -3.1M787.2 685.0l1.4 -2.7M787.2 685.0l-1.3 -2.4M787.2 685.0l0 -3.1M741.0 592.2l1.4 -2.7M741.0 592.2l-1.3 -2.4M741.0 592.2l0 -3.1M731.3 549.6l1.4 -2.7M731.3 549.6l-1.3 -2.4M731.3 549.6l0 -3.1M727.4 582.4l1.4 -2.7M727.4 582.4l-1.3 -2.4M727.4 582.4l0 -3.1M739.0 540.2l1.4 -2.7M739.0 540.2l-1.3 -2.4M739.0 540.2l0 -3.1M688.0 551.3l1.4 -2.7M688.0 551.3l-1.3 -2.4M688.0 551.3l0 -3.1M629.4 534.1l1.4 -2.7M629.4 534.1l-1.3 -2.4M629.4 534.1l0 -3.1M767.0 548.0l1.4 -2.7M767.0 548.0l-1.3 -2.4M767.0 548.0l0 -3.1M709.2 543.3l1.4 -2.7M709.2 543.3l-1.3 -2.4M709.2 543.3l0 -3.1M726.4 570.5l1.4 -2.7M726.4 570.5l-1.3 -2.4M726.4 570.5l0 -3.1M671.3 542.5l1.4 -2.7M671.3 542.5l-1.3 -2.4M671.3 542.5l0 -3.1M653.2 547.2l1.4 -2.7M653.2 547.2l-1.3 -2.4M653.2 547.2l0 -3.1M737.2 609.8l1.4 -2.7M737.2 609.8l-1.3 -2.4M737.2 609.8l0 -3.1M720.5 543.7l1.4 -2.7M720.5 543.7l-1.3 -2.4M720.5 543.7l0 -3.1M735.1 562.6l1.4 -2.7M735.1 562.6l-1.3 -2.4M735.1 562.6l0 -3.1M659.8 538.4l1.4 -2.7M659.8 538.4l-1.3 -2.4M659.8 538.4l0 -3.1M763.6 644.3l1.4 -2.7M763.6 644.3l-1.3 -2.4M763.6 644.3l0 -3.1M755.8 525.3l1.4 -2.7M755.8 525.3l-1.3 -2.4M755.8 525.3l0 -3.1M768.9 611.7l1.4 -2.7M768.9 611.7l-1.3 -2.4M768.9 611.7l0 -3.1M637.0 557.6l1.4 -2.7M637.0 557.6l-1.3 -2.4M637.0 557.6l0 -3.1M646.0 536.3l1.4 -2.7M646.0 536.3l-1.3 -2.4M646.0 536.3l0 -3.1M796.9 691.6l1.4 -2.7M796.9 691.6l-1.3 -2.4M796.9 691.6l0 -3.1"/><path class="ge" d="M785.4 555.5L772.1 548.8L761.8 548.2L754.8 551.4L743.2 555.9L734.5 563.8L730.3 570.1L731.7 574.7L738.5 587.9L747.3 600.3L770.7 610.3L767.3 613.6L766.1 618.8L775.1 635.0L780.9 642.3L783.8 651.2L796.0 662.0L798.0 671.9L802.1 689.2L800.0 691.3L787.0 693.7L781.1 675.1L771.9 655.4L748.2 627.3L740.4 615.3L734.6 609.9L727.1 602.0L706.5 582.0L700.0 578.8L691.3 570.9L686.0 562.3L677.1 549.3L664.3 547.8L654.2 547.2L646.3 547.8L636.6 559.6L624.6 532.5L670.7 540.0L684.4 542.9L707.1 541.7L719.2 541.0L738.4 537.6L758.7 533.6L755.6 527.1L755.6 524.1L761.0 524.2L765.3 527.0L770.8 530.5L770.1 533.2L773.3 540.3L779.6 543.8L785.0 547.8Z"/><path class="rdc" d="M-117.2 103.8L-109.0 115.6L-99.1 130.8L-92.0 142.0L-88.2 156.1L-85.3 167.4L-81.4 182.1L-79.5 192.8L-76.9 202.6L-72.2 208.4L-59.0 224.9L-37.7 249.7L-26.8 263.6L-18.1 275.7L-9.6 285.0L-5.5 288.7L5.6 296.4L26.8 310.4L46.1 320.7L71.9 338.1L76.4 340.8M-4.5 374.8L14.5 371.2L27.3 368.3L39.6 364.8L72.7 352.5L91.4 345.1L104.7 339.2L117.2 332.3L125.1 325.0L132.8 316.4L138.1 308.6L145.3 300.5L153.0 293.6L174.3 281.0L212.7 257.0L225.2 249.0M212.7 257.0L200.4 250.7M610.3 93.6L573.6 104.9L548.8 114.7L523.9 127.4L488.9 149.2L476.0 157.1L422.9 180.2L380.0 199.7L370.2 203.9L360.3 207.5L349.4 210.4L323.2 213.0L316.5 213.6L300.2 215.4L281.4 217.5L274.6 219.1L255.5 223.8L235.8 229.2L217.3 239.6L200.4 250.7L162.4 275.6L142.1 288.2L131.2 295.5L112.8 318.7L89.4 334.1L76.4 340.8L68.7 343.7L52.5 350.9L34.6 357.3L15.3 361.1L-8.8 364.2L-28.0 364.8L-54.1 368.8L-80.0 373.5L-98.0 374.9L-102.1 373.7L-113.2 370.4L-141.8 354.3M380.0 199.7L375.5 191.7L375.0 184.2M349.4 210.4L344.3 193.1M323.2 213.0L317.3 189.2L319.9 185.1M300.2 215.4L293.6 192.4M274.6 219.1L269.4 202.8L266.9 189.9"/><path class="rd2" d="M-117.2 103.8L-109.0 115.6L-99.1 130.8L-92.0 142.0L-88.2 156.1L-85.3 167.4L-81.4 182.1L-79.5 192.8L-76.9 202.6L-72.2 208.4L-59.0 224.9L-37.7 249.7L-26.8 263.6L-18.1 275.7L-9.6 285.0L-5.5 288.7L5.6 296.4L26.8 310.4L46.1 320.7L71.9 338.1L76.4 340.8M-4.5 374.8L14.5 371.2L27.3 368.3L39.6 364.8L72.7 352.5L91.4 345.1L104.7 339.2L117.2 332.3L125.1 325.0L132.8 316.4L138.1 308.6L145.3 300.5L153.0 293.6L174.3 281.0L212.7 257.0L225.2 249.0M212.7 257.0L200.4 250.7M610.3 93.6L573.6 104.9L548.8 114.7L523.9 127.4L488.9 149.2L476.0 157.1L422.9 180.2L380.0 199.7L370.2 203.9L360.3 207.5L349.4 210.4L323.2 213.0L316.5 213.6L300.2 215.4L281.4 217.5L274.6 219.1L255.5 223.8L235.8 229.2L217.3 239.6L200.4 250.7L162.4 275.6L142.1 288.2L131.2 295.5L112.8 318.7L89.4 334.1L76.4 340.8L68.7 343.7L52.5 350.9L34.6 357.3L15.3 361.1L-8.8 364.2L-28.0 364.8L-54.1 368.8L-80.0 373.5L-98.0 374.9L-102.1 373.7L-113.2 370.4L-141.8 354.3M380.0 199.7L375.5 191.7L375.0 184.2M349.4 210.4L344.3 193.1M323.2 213.0L317.3 189.2L319.9 185.1M300.2 215.4L293.6 192.4M274.6 219.1L269.4 202.8L266.9 189.9"/><path class="rd3" d="M788.1 523.0L766.2 515.3L750.3 511.7L723.8 509.0L709.4 509.5L698.6 510.6L698.0 512.5L704.3 516.7L706.9 517.4L710.0 518.1L716.8 518.9L729.2 520.7L733.9 523.2L736.2 525.1L736.3 526.9L732.3 529.2L724.0 531.2L716.7 530.8L711.9 530.5L707.8 530.2L698.3 529.3M108.1 521.4L127.0 521.2L152.3 518.8L165.7 517.6L176.1 516.2L188.9 516.0L195.8 515.7L238.3 517.8L267.2 518.0L292.7 516.5L304.0 516.2L333.7 516.3L383.8 515.3L405.7 516.1L435.6 515.7L477.4 511.3M195.8 515.7L203.0 513.8L210.3 512.2L213.8 511.3L217.1 510.6L223.7 509.0L228.7 508.2L232.0 507.7L237.1 507.5L248.1 508.5L253.2 508.6L264.3 508.8L279.6 507.2L288.7 506.7L290.6 507.0L296.8 507.9L301.8 508.4L320.0 510.4L329.7 510.3L332.8 510.1L335.7 510.2L354.1 512.1L360.3 512.1L372.5 513.4L388.5 510.2L403.7 511.7L420.9 511.1L434.4 512.6L452.1 511.8L458.8 512.1L477.4 511.3L453.1 508.7L434.0 507.1L415.1 504.9L402.6 503.4L391.1 502.2L378.0 502.1L365.4 501.8L358.0 502.1L353.1 503.1L337.9 506.2L335.3 506.5L332.1 506.5L318.0 506.3L314.7 504.7L300.5 503.9L295.5 503.5L290.0 503.9L268.9 504.5L253.1 504.3L246.7 504.9L245.1 505.1L237.1 507.5M698.3 529.3L694.4 530.2L687.8 530.7M710.4 550.3L724.2 576.7L727.9 584.8L737.5 600.7L749.8 615.3L780.9 655.5L780.7 657.2L798.4 702.0L790.4 733.6L792.3 772.6L795.9 779.5L803.2 787.2L834.9 817.0L839.6 826.1L839.1 830.9L835.1 843.4L826.8 867.6L829.6 896.1L841.2 927.7M854.8 934.1L841.2 927.7M1295.6 975.0L1277.4 971.9L1261.8 968.8L1247.4 966.5L1234.2 964.4L1175.5 959.7L1154.8 958.7L1123.2 958.8L1079.4 959.4L1069.4 961.1L1059.3 964.3L1032.4 974.8L1008.5 981.8L984.2 979.5L983.0 979.6L951.2 973.4L927.6 963.8L902.7 952.8L892.4 948.6L876.2 942.9L871.2 940.8L865.1 938.9L854.8 934.1M918.9 810.1L916.4 805.8L914.7 801.7L913.6 798.6L910.6 794.8L908.1 792.4L905.5 789.2L901.7 784.5L898.2 782.1L894.6 778.0L892.0 774.5L888.9 771.2L884.1 770.5L883.2 765.6L882.5 763.3L880.0 761.1L875.0 759.7L872.4 758.6L870.7 756.8L869.6 754.9L868.9 753.3L869.4 752.0L866.5 750.9L860.5 750.1L856.4 748.2L853.1 746.8L852.2 745.4L851.9 741.8L851.7 739.3L850.6 737.6L849.1 736.2L847.1 736.0L845.6 735.8L841.5 735.1L831.4 733.4M694.4 530.2L705.2 534.8M648.4 528.4L654.1 528.3L658.7 528.9L687.8 530.7M705.2 534.8L722.1 540.3L742.0 541.9M890.6 877.3L892.5 875.5L896.4 873.8L901.1 873.0L904.8 871.9L910.8 869.0L915.8 865.3L919.0 860.3L922.6 855.2L923.4 852.1L926.0 848.8L925.0 845.7L923.4 843.1L920.1 838.7L919.7 834.2M887.3 880.0L884.3 882.9L882.7 883.9L882.2 886.7L881.8 889.6L881.5 891.7L882.0 893.7L882.9 896.5L883.5 899.3L884.5 907.6L882.8 909.6L880.3 910.4L876.4 910.7L873.8 911.3L872.3 912.5L871.3 914.6L869.4 915.6L866.4 917.4L864.7 919.0L863.4 921.2L861.8 922.9L860.7 924.2L862.0 924.7L860.3 927.1L857.6 926.0L854.8 934.1M876.2 942.9L873.4 938.5L870.7 929.5L869.8 922.5L864.7 919.0L860.4 915.9L860.2 912.7L859.8 908.4L859.6 904.9M884.8 909.4L888.3 910.4L898.6 912.3L907.3 914.0L916.3 920.8L922.3 926.3L923.2 933.0L924.3 940.1L925.6 944.5L930.4 950.4L932.8 955.5L938.5 960.5L948.4 968.5L965.8 975.5L982.2 978.7M860.4 915.9L857.6 926.0M820.2 709.8L813.9 702.9M301.8 508.4L304.0 516.2M253.1 504.3L253.2 508.6M246.7 504.9L248.1 508.5M290.0 503.9L290.6 507.0M300.5 503.9L301.8 508.4M335.3 506.5L332.8 510.1L329.7 510.3L332.1 506.5M358.0 502.1L355.8 499.4L350.8 496.7L347.1 496.8L341.6 496.1L332.3 497.4L324.6 498.6L320.4 499.5L315.6 502.4L314.7 504.7M358.0 502.1L360.3 512.1M453.1 508.7L452.1 511.8M655.7 531.0L650.8 530.1L648.4 528.4L626.1 527.4M687.8 536.6L682.6 535.0L679.5 535.3L672.3 534.5L666.6 534.5L662.2 532.5L655.7 531.0M687.8 536.6L695.9 541.3M687.8 536.6L694.4 530.2M181.6 493.0L212.0 493.6L314.2 488.7L331.2 486.4L369.8 484.0L390.2 483.8L408.2 480.4L529.3 499.4M529.3 509.3L529.2 512.0M529.3 499.4L529.3 509.3M727.9 584.8L736.5 583.5M752.5 580.7L755.5 580.1L752.7 573.3L762.8 562.7M736.5 583.5L752.5 580.7M776.4 536.1L789.4 545.2L796.0 553.9L800.4 558.5L810.2 561.9L838.2 568.2L869.7 576.9L893.3 581.2L902.4 581.5L922.9 579.9L962.4 572.4L968.5 567.8L979.7 565.5L1006.5 560.8L1053.6 554.0L1106.5 547.0L1133.4 544.8L1154.2 545.9L1179.1 545.9L1201.5 543.4L1227.6 538.9M902.7 952.8L899.0 945.3L891.5 938.8L883.3 924.1L885.3 912.2L884.8 909.4L884.5 907.6M831.4 733.4L821.2 730.9L817.5 727.7L816.0 724.9L815.2 721.1L814.5 719.7L815.6 717.1L818.3 715.2L820.4 713.6L820.2 709.8M884.5 874.3L890.6 877.3L887.3 880.0L880.7 878.7L882.0 877.2L884.5 874.3L887.4 870.8L893.5 864.3L899.6 858.7L902.1 855.8L907.6 851.3L911.1 847.6L914.1 844.9L919.7 834.2L919.5 831.6L920.1 828.4L920.0 826.1L919.8 821.0L919.9 813.7L918.9 810.1"/><path class="rdp" d="M783.6 535.1L776.4 536.1L769.0 537.2L761.0 538.2M477.4 511.3L514.1 511.3L529.2 512.0L554.1 514.6L583.3 517.7L603.0 521.1L626.1 527.4L632.7 532.9L643.6 538.1L656.2 542.1L663.2 544.1L675.6 548.4L681.7 550.4L692.7 550.8L707.6 551.1L710.4 550.3L725.8 544.4L742.0 541.9M761.0 538.2L742.0 541.9M813.9 702.9L812.9 702.1L812.3 700.9L810.3 694.6L810.8 690.3L807.7 684.9L806.5 681.4L803.8 677.2L797.7 668.4L793.7 662.5L788.2 657.6L784.1 657.0L780.7 657.2L774.5 656.6L758.1 641.6L740.3 616.5L733.2 605.5L722.9 593.4L719.6 581.7L716.1 572.4L709.9 556.6L709.0 554.3L707.7 552.1M707.7 552.1L707.6 551.1L705.3 548.9L698.3 545.2L695.9 541.3"/><path class="sh2" d="M930.8 525.3L932.7 537.5L916.5 538.3L914.6 526.0ZM793.0 574.7L797.4 584.0L788.7 585.3L784.3 576.1ZM806.7 585.5L812.3 597.5L803.3 598.9L797.7 586.9ZM637.9 497.6L637.2 502.0L630.7 501.6L630.1 505.1L622.1 504.7L623.4 496.8ZM779.4 585.3L782.2 591.1L791.4 589.6L793.2 593.1L778.0 595.6L773.4 586.3ZM796.1 542.0L789.0 542.0L789.0 539.3L789.0 537.3L796.1 537.3ZM836.0 541.0L826.6 541.5L825.5 534.7L834.9 534.2ZM855.4 534.0L856.5 539.7L846.2 540.3L845.1 534.6ZM884.9 525.5L886.0 531.2L876.6 531.8L875.5 526.1ZM892.5 520.4L892.3 515.9L906.6 515.7L906.8 520.2ZM929.9 516.2L937.9 516.4L937.8 519.6L929.8 519.4ZM915.9 516.0L925.2 515.9L925.3 519.5L916.0 519.6ZM1004.6 504.0L998.1 505.7L992.9 499.2L999.4 497.5ZM996.2 493.2L998.6 496.3L990.4 498.4L988.0 495.4ZM1014.1 540.2L1015.1 554.9L998.5 555.3L998.2 551.1L1005.0 551.0L1004.6 544.9L997.6 545.1L997.3 540.6ZM991.0 533.3L981.7 533.2L981.8 529.4L991.0 529.5ZM1027.3 544.3L1028.3 540.6L1039.2 541.6L1038.2 545.3ZM1027.5 555.2L1027.6 558.6L1018.1 558.6L1018.0 555.2ZM955.2 553.8L956.4 560.7L949.0 561.1L947.9 554.1ZM934.0 542.5L936.1 553.8L926.6 554.4L924.5 543.1ZM853.2 543.4L853.9 549.0L847.3 549.2L846.5 543.6ZM883.4 543.6L883.9 547.6L878.5 547.8L877.9 543.9ZM797.4 528.8L797.2 525.9L802.1 525.8L802.3 528.7ZM802.3 513.2L802.4 511.0L808.5 511.0L808.5 513.3ZM801.3 512.3L801.3 515.9L792.1 515.9L792.0 512.3ZM855.7 560.3L854.6 551.2L883.1 550.2L883.6 554.2L861.8 555.0L862.4 560.1ZM912.8 544.7L915.2 548.6L909.0 549.8L906.6 545.9ZM925.6 574.8L927.0 580.4L892.1 583.2L890.7 577.6ZM959.4 566.5L962.1 572.9L942.8 575.5L941.3 571.9L954.3 570.1L953.2 567.4ZM923.8 567.9L924.8 572.2L904.3 573.6L903.4 569.3ZM893.0 549.1L894.6 558.5L887.6 558.8L886.1 549.4ZM891.7 559.7L892.6 564.1L864.1 565.8L863.2 561.5ZM865.9 567.5L866.3 571.9L891.4 571.0L890.8 566.0L896.3 565.8L897.3 574.4L860.2 575.7L859.3 567.8ZM851.5 561.8L850.7 567.0L844.3 566.7L844.5 565.3L836.9 564.9L837.4 561.1ZM831.4 565.1L819.5 565.1L819.5 562.1L831.4 562.1ZM857.9 569.7L852.9 569.9L852.1 564.0L857.1 563.8ZM656.4 497.6L657.6 504.5L649.7 504.9L650.1 507.6L642.1 508.1L640.9 501.1L649.3 500.6L648.8 498.0ZM638.6 506.2L637.9 512.4L631.7 512.1L632.5 505.9ZM662.0 497.0L673.0 498.7L671.4 502.2L660.4 500.5ZM679.3 503.7L678.4 508.4L670.6 507.9L671.5 503.2ZM618.4 499.3L607.4 499.0L607.7 495.6L618.7 495.9ZM710.6 605.0L716.1 611.1L708.9 613.2L703.5 607.1ZM722.9 611.4L724.9 613.6L720.0 615.0L718.1 612.8ZM673.1 567.0L649.5 563.5L653.1 556.3L676.1 560.2Z"/><path class="sh1" d="M927.8 523.0L929.7 535.2L913.5 536.0L911.6 523.7ZM790.0 572.4L794.4 581.7L785.7 583.0L781.3 573.8ZM803.7 583.2L809.3 595.2L800.3 596.6L794.7 584.6ZM634.9 495.3L634.2 499.7L627.7 499.3L627.1 502.8L619.1 502.4L620.4 494.5ZM776.4 583.0L779.2 588.8L788.4 587.3L790.2 590.8L775.0 593.3L770.4 584.0ZM793.1 539.7L786.0 539.7L786.0 537.0L786.0 535.0L793.1 535.0ZM833.0 538.7L823.6 539.2L822.5 532.4L831.9 531.9ZM852.4 531.7L853.5 537.4L843.2 538.0L842.1 532.3ZM881.9 523.2L883.0 528.9L873.6 529.5L872.5 523.8ZM889.5 518.1L889.3 513.6L903.6 513.4L903.8 517.9ZM926.9 513.9L934.9 514.1L934.8 517.3L926.8 517.1ZM912.9 513.7L922.2 513.6L922.3 517.2L913.0 517.3ZM1001.6 501.7L995.1 503.4L989.9 496.9L996.4 495.2ZM993.2 490.9L995.6 494.0L987.4 496.1L985.0 493.1ZM1011.1 537.9L1012.1 552.6L995.5 553.0L995.2 548.8L1002.0 548.7L1001.6 542.6L994.6 542.8L994.3 538.3ZM988.0 531.0L978.7 530.9L978.8 527.1L988.0 527.2ZM1024.3 542.0L1025.3 538.3L1036.2 539.3L1035.2 543.0ZM1024.5 552.9L1024.6 556.3L1015.1 556.3L1015.0 552.9ZM952.2 551.5L953.4 558.4L946.0 558.8L944.9 551.8ZM931.0 540.2L933.1 551.5L923.6 552.1L921.5 540.8ZM850.2 541.1L850.9 546.7L844.3 546.9L843.5 541.3ZM880.4 541.3L880.9 545.3L875.5 545.5L874.9 541.6ZM794.4 526.5L794.2 523.6L799.1 523.5L799.3 526.4ZM799.3 510.9L799.4 508.7L805.5 508.7L805.5 511.0ZM798.3 510.0L798.3 513.6L789.1 513.6L789.0 510.0ZM852.7 558.0L851.6 548.9L880.1 547.9L880.6 551.9L858.8 552.7L859.4 557.8ZM909.8 542.4L912.2 546.3L906.0 547.5L903.6 543.6ZM922.6 572.5L924.0 578.1L889.1 580.9L887.7 575.3ZM956.4 564.2L959.1 570.6L939.8 573.2L938.3 569.6L951.3 567.8L950.2 565.1ZM920.8 565.6L921.8 569.9L901.3 571.3L900.4 567.0ZM890.0 546.8L891.6 556.2L884.6 556.5L883.1 547.1ZM888.7 557.4L889.6 561.8L861.1 563.5L860.2 559.2ZM862.9 565.2L863.3 569.6L888.4 568.7L887.8 563.7L893.3 563.5L894.3 572.1L857.2 573.4L856.3 565.5ZM848.5 559.5L847.7 564.7L841.3 564.4L841.5 563.0L833.9 562.6L834.4 558.8ZM828.4 562.8L816.5 562.8L816.5 559.8L828.4 559.8ZM854.9 567.4L849.9 567.6L849.1 561.7L854.1 561.5ZM653.4 495.3L654.6 502.2L646.7 502.6L647.1 505.3L639.1 505.8L637.9 498.8L646.3 498.3L645.8 495.7ZM635.6 503.9L634.9 510.1L628.7 509.8L629.5 503.6ZM659.0 494.7L670.0 496.4L668.4 499.9L657.4 498.2ZM676.3 501.4L675.4 506.1L667.6 505.6L668.5 500.9ZM615.4 497.0L604.4 496.7L604.7 493.3L615.7 493.6ZM707.6 602.7L713.1 608.8L705.9 610.9L700.5 604.8ZM719.9 609.1L721.9 611.3L717.0 612.7L715.1 610.5ZM670.1 564.7L646.5 561.2L650.1 554.0L673.1 557.9ZM732.8 590.5a5.3 3.1 0 1 0 10.6 0a5.3 3.1 0 1 0 -10.6 0ZM633.8 545.5a5.3 3.1 0 1 0 10.7 0a5.3 3.1 0 1 0 -10.7 0ZM699.5 577.5a4.7 2.7 0 1 0 9.4 0a4.7 2.7 0 1 0 -9.4 0ZM776.0 644.1a6.1 3.6 0 1 0 12.2 0a6.1 3.6 0 1 0 -12.2 0ZM790.8 688.6a4.5 2.6 0 1 0 8.9 0a4.5 2.6 0 1 0 -8.9 0ZM785.3 669.5a4.4 2.6 0 1 0 8.7 0a4.4 2.6 0 1 0 -8.7 0ZM779.0 549.7a5.8 3.4 0 1 0 11.5 0a5.8 3.4 0 1 0 -11.5 0ZM722.7 551.3a4.3 2.5 0 1 0 8.6 0a4.3 2.5 0 1 0 -8.6 0ZM732.5 610.3a4.7 2.8 0 1 0 9.4 0a4.7 2.8 0 1 0 -9.4 0ZM684.2 555.0a5.3 3.1 0 1 0 10.7 0a5.3 3.1 0 1 0 -10.7 0ZM661.2 548.2a5.5 3.2 0 1 0 10.9 0a5.5 3.2 0 1 0 -10.9 0ZM740.3 538.2a5.8 3.4 0 1 0 11.6 0a5.8 3.4 0 1 0 -11.6 0ZM728.1 566.8a6.6 3.8 0 1 0 13.1 0a6.6 3.8 0 1 0 -13.1 0ZM756.3 619.2a5.9 3.4 0 1 0 11.8 0a5.9 3.4 0 1 0 -11.8 0ZM759.4 538.0a4.9 2.9 0 1 0 9.9 0a4.9 2.9 0 1 0 -9.9 0ZM715.8 583.5a5.2 3.0 0 1 0 10.4 0a5.2 3.0 0 1 0 -10.4 0ZM751.5 635.9a6.5 3.8 0 1 0 12.9 0a6.5 3.8 0 1 0 -12.9 0ZM705.8 544.7a4.7 2.8 0 1 0 9.5 0a4.7 2.8 0 1 0 -9.5 0ZM709.5 564.9a6.5 3.8 0 1 0 13.0 0a6.5 3.8 0 1 0 -13.0 0ZM747.8 603.6a5.7 3.3 0 1 0 11.4 0a5.7 3.3 0 1 0 -11.4 0ZM750.4 552.8a4.5 2.6 0 1 0 8.9 0a4.5 2.6 0 1 0 -8.9 0ZM-121.5 110.5a3.8 2.2 0 1 0 7.6 0a3.8 2.2 0 1 0 -7.6 0ZM-99.1 126.2a3.7 2.2 0 1 0 7.4 0a3.7 2.2 0 1 0 -7.4 0ZM-99.7 146.0a4.6 2.7 0 1 0 9.2 0a4.6 2.7 0 1 0 -9.2 0ZM-84.3 164.2a4.9 2.9 0 1 0 9.9 0a4.9 2.9 0 1 0 -9.9 0ZM-89.0 184.0a3.8 2.2 0 1 0 7.6 0a3.8 2.2 0 1 0 -7.6 0ZM-74.2 202.4a4.1 2.4 0 1 0 8.2 0a4.1 2.4 0 1 0 -8.2 0ZM-71.0 221.8a4.2 2.4 0 1 0 8.3 0a4.2 2.4 0 1 0 -8.3 0ZM-46.8 236.4a4.3 2.5 0 1 0 8.6 0a4.3 2.5 0 1 0 -8.6 0ZM-41.5 256.5a3.8 2.2 0 1 0 7.6 0a3.8 2.2 0 1 0 -7.6 0ZM-18.4 271.6a4.1 2.4 0 1 0 8.1 0a4.1 2.4 0 1 0 -8.1 0ZM-12.7 291.6a4.1 2.4 0 1 0 8.3 0a4.1 2.4 0 1 0 -8.3 0ZM17.3 302.5a4.7 2.7 0 1 0 9.3 0a4.7 2.7 0 1 0 -9.3 0ZM33.1 320.7a4.3 2.5 0 1 0 8.6 0a4.3 2.5 0 1 0 -8.6 0ZM63.2 330.6a4.5 2.6 0 1 0 9.0 0a4.5 2.6 0 1 0 -9.0 0ZM21.0 373.8a3.9 2.3 0 1 0 7.8 0a3.9 2.3 0 1 0 -7.8 0ZM45.3 359.2a4.1 2.4 0 1 0 8.1 0a4.1 2.4 0 1 0 -8.1 0ZM78.1 353.9a5.3 3.1 0 1 0 10.6 0a5.3 3.1 0 1 0 -10.6 0ZM98.2 337.6a5.2 3.0 0 1 0 10.4 0a5.2 3.0 0 1 0 -10.4 0ZM128.9 326.4a3.8 2.2 0 1 0 7.6 0a3.8 2.2 0 1 0 -7.6 0ZM132.9 306.0a4.0 2.4 0 1 0 8.1 0a4.0 2.4 0 1 0 -8.1 0ZM159.0 293.7a5.1 3.0 0 1 0 10.2 0a5.1 3.0 0 1 0 -10.2 0ZM175.4 275.4a3.9 2.3 0 1 0 7.8 0a3.9 2.3 0 1 0 -7.8 0ZM206.0 265.5a4.0 2.4 0 1 0 8.0 0a4.0 2.4 0 1 0 -8.0 0ZM204.2 250.9a4.1 2.4 0 1 0 8.2 0a4.1 2.4 0 1 0 -8.2 0ZM576.3 101.0a4.1 2.4 0 1 0 8.2 0a4.1 2.4 0 1 0 -8.2 0ZM554.0 116.8a3.9 2.3 0 1 0 7.9 0a3.9 2.3 0 1 0 -7.9 0ZM521.9 124.3a3.8 2.3 0 1 0 7.7 0a3.8 2.3 0 1 0 -7.7 0ZM504.9 142.7a5.4 3.1 0 1 0 10.8 0a5.4 3.1 0 1 0 -10.8 0ZM474.9 152.5a4.7 2.7 0 1 0 9.3 0a4.7 2.7 0 1 0 -9.3 0ZM457.4 169.5a3.6 2.1 0 1 0 7.3 0a3.6 2.1 0 1 0 -7.3 0ZM422.5 176.0a5.3 3.1 0 1 0 10.7 0a5.3 3.1 0 1 0 -10.7 0ZM403.6 192.9a4.5 2.6 0 1 0 9.0 0a4.5 2.6 0 1 0 -9.0 0ZM369.8 199.8a5.4 3.2 0 1 0 10.8 0a5.4 3.2 0 1 0 -10.8 0ZM345.5 214.9a4.9 2.9 0 1 0 9.9 0a4.9 2.9 0 1 0 -9.9 0ZM310.7 211.9a4.9 2.9 0 1 0 9.8 0a4.9 2.9 0 1 0 -9.8 0ZM280.5 221.7a4.2 2.5 0 1 0 8.5 0a4.2 2.5 0 1 0 -8.5 0ZM245.5 223.3a5.2 3.0 0 1 0 10.4 0a5.2 3.0 0 1 0 -10.4 0ZM224.4 239.2a5.2 3.0 0 1 0 10.3 0a5.2 3.0 0 1 0 -10.3 0ZM194.8 249.0a4.3 2.5 0 1 0 8.6 0a4.3 2.5 0 1 0 -8.6 0ZM181.4 267.6a3.8 2.2 0 1 0 7.5 0a3.8 2.2 0 1 0 -7.5 0ZM149.7 277.8a5.2 3.0 0 1 0 10.4 0a5.2 3.0 0 1 0 -10.4 0ZM135.6 296.3a4.9 2.9 0 1 0 9.9 0a4.9 2.9 0 1 0 -9.9 0ZM111.1 310.0a5.1 3.0 0 1 0 10.2 0a5.1 3.0 0 1 0 -10.2 0ZM103.6 329.4a3.7 2.1 0 1 0 7.3 0a3.7 2.1 0 1 0 -7.3 0ZM72.1 338.8a4.0 2.4 0 1 0 8.0 0a4.0 2.4 0 1 0 -8.0 0ZM51.1 355.2a4.7 2.8 0 1 0 9.4 0a4.7 2.8 0 1 0 -9.4 0ZM17.8 358.1a3.6 2.1 0 1 0 7.3 0a3.6 2.1 0 1 0 -7.3 0ZM-13.0 368.6a4.0 2.3 0 1 0 7.9 0a4.0 2.3 0 1 0 -7.9 0ZM-48.3 365.3a4.8 2.8 0 1 0 9.6 0a4.8 2.8 0 1 0 -9.6 0ZM-76.7 376.9a4.2 2.5 0 1 0 8.4 0a4.2 2.5 0 1 0 -8.4 0ZM-107.9 370.4a4.4 2.6 0 1 0 8.8 0a4.4 2.6 0 1 0 -8.8 0ZM-140.0 362.9a5.2 3.0 0 1 0 10.4 0a5.2 3.0 0 1 0 -10.4 0ZM378.4 188.0a3.9 2.3 0 1 0 7.7 0a3.9 2.3 0 1 0 -7.7 0ZM350.6 208.2a4.9 2.9 0 1 0 9.8 0a4.9 2.9 0 1 0 -9.8 0ZM321.8 197.9a4.4 2.6 0 1 0 8.8 0a4.4 2.6 0 1 0 -8.8 0ZM299.2 204.9a4.7 2.8 0 1 0 9.5 0a4.7 2.8 0 1 0 -9.5 0ZM275.2 216.7a5.4 3.1 0 1 0 10.8 0a5.4 3.1 0 1 0 -10.8 0ZM260.8 198.6a3.7 2.1 0 1 0 7.3 0a3.7 2.1 0 1 0 -7.3 0Z"/><path class="tk" d="M578.8 99.8l0 -5.1"/><path class="tc t1" d="M573.8 91.8a5.0 5.0 0 1 0 10.0 0a5.0 5.0 0 1 0 -10.0 0Z"/><path class="tc td" d="M574.2 93.3a3.1 3.1 0 1 0 6.2 0a3.1 3.1 0 1 0 -6.2 0Z"/><path class="tk" d="M-119.3 109.3l0 -6.1"/><path class="tp t1" d="M-119.3 93.0L-123.4 103.3L-115.2 103.3ZM-119.3 97.7L-124.0 105.0L-114.5 105.0Z"/><path class="tk" d="M556.3 115.6l0 -4.9"/><path class="tc t2" d="M551.5 107.9a4.8 4.8 0 1 0 9.6 0a4.8 4.8 0 1 0 -9.6 0Z"/><path class="tc td" d="M551.9 109.3a3.0 3.0 0 1 0 5.9 0a3.0 3.0 0 1 0 -5.9 0Z"/><path class="tk" d="M-97.0 125.0l0 -4.6M524.2 123.1l0 -4.8"/><path class="tc t1" d="M-101.5 117.8a4.5 4.5 0 1 0 9.1 0a4.5 4.5 0 1 0 -9.1 0Z"/><path class="tc td" d="M-101.2 119.1a2.8 2.8 0 1 0 5.6 0a2.8 2.8 0 1 0 -5.6 0ZM519.9 117.0a2.9 2.9 0 1 0 5.8 0a2.9 2.9 0 1 0 -5.8 0Z"/><path class="tc t2" d="M519.5 115.6a4.7 4.7 0 1 0 9.4 0a4.7 4.7 0 1 0 -9.4 0Z"/><path class="tk" d="M508.7 141.5l0 -6.7"/><path class="tc t2" d="M502.1 131.0a6.6 6.6 0 1 0 13.1 0a6.6 6.6 0 1 0 -13.1 0Z"/><path class="tc td" d="M502.6 133.0a4.1 4.1 0 1 0 8.1 0a4.1 4.1 0 1 0 -8.1 0Z"/><path class="tk" d="M-96.7 144.8l0 -5.7"/><path class="tc t1" d="M-102.4 135.8a5.6 5.6 0 1 0 11.3 0a5.6 5.6 0 1 0 -11.3 0Z"/><path class="tc td" d="M-101.9 137.5a3.5 3.5 0 1 0 7.0 0a3.5 3.5 0 1 0 -7.0 0Z"/><path class="tk" d="M477.9 151.3l0 -7.4"/><path class="tp t1" d="M477.9 131.4L472.9 144.0L482.9 144.0ZM477.9 137.1L472.1 146.1L483.7 146.1Z"/><path class="tk" d="M-80.9 163.0l0 -7.8"/><path class="tp t2" d="M-80.9 141.9L-86.2 155.2L-75.6 155.2ZM-80.9 148.0L-87.1 157.4L-74.8 157.4Z"/><path class="tk" d="M459.5 168.3l0 -4.5"/><path class="tc t2" d="M455.0 161.1a4.4 4.4 0 1 0 8.9 0a4.4 4.4 0 1 0 -8.9 0Z"/><path class="tc td" d="M455.4 162.5a2.8 2.8 0 1 0 5.5 0a2.8 2.8 0 1 0 -5.5 0Z"/><path class="tk" d="M426.2 174.8l0 -8.5"/><path class="tp t2" d="M426.2 152.0L420.5 166.3L431.9 166.3ZM426.2 158.5L419.6 168.8L432.8 168.8Z"/><path class="tk" d="M-86.7 182.8l0 -4.7"/><path class="tc t1" d="M-91.4 175.4a4.7 4.7 0 1 0 9.3 0a4.7 4.7 0 1 0 -9.3 0Z"/><path class="tc td" d="M-91.0 176.8a2.9 2.9 0 1 0 5.8 0a2.9 2.9 0 1 0 -5.8 0Z"/><path class="tk" d="M380.6 186.8l0 -4.8"/><path class="tc t2" d="M375.9 179.3a4.7 4.7 0 1 0 9.4 0a4.7 4.7 0 1 0 -9.4 0Z"/><path class="tc td" d="M376.3 180.7a2.9 2.9 0 1 0 5.8 0a2.9 2.9 0 1 0 -5.8 0Z"/><path class="tk" d="M406.5 191.7l0 -5.6"/><path class="tc t1" d="M401.0 182.9a5.5 5.5 0 1 0 10.9 0a5.5 5.5 0 1 0 -10.9 0Z"/><path class="tc td" d="M401.5 184.6a3.4 3.4 0 1 0 6.8 0a3.4 3.4 0 1 0 -6.8 0Z"/><path class="tk" d="M324.7 196.7l0 -7.0M262.9 197.4l0 -4.6"/><path class="tp t1" d="M324.7 177.8L319.9 189.7L329.4 189.7ZM324.7 183.2L319.2 191.7L330.2 191.7Z"/><path class="tc t1" d="M258.4 190.2a4.5 4.5 0 1 0 8.9 0a4.5 4.5 0 1 0 -8.9 0Z"/><path class="tc td" d="M258.8 191.5a2.8 2.8 0 1 0 5.5 0a2.8 2.8 0 1 0 -5.5 0Z"/><path class="tk" d="M-71.8 201.2l0 -5.1M373.6 198.6l0 -8.6"/><path class="tc t2" d="M-76.7 193.2a5.0 5.0 0 1 0 10.0 0a5.0 5.0 0 1 0 -10.0 0Z"/><path class="tc td" d="M-76.3 194.7a3.1 3.1 0 1 0 6.2 0a3.1 3.1 0 1 0 -6.2 0Z"/><path class="tp t2" d="M373.6 175.5L367.8 190.0L379.4 190.0ZM373.6 182.1L366.9 192.5L380.3 192.5Z"/><path class="tk" d="M302.4 203.7l0 -5.9"/><path class="tc t1" d="M296.6 194.5a5.8 5.8 0 1 0 11.6 0a5.8 5.8 0 1 0 -11.6 0Z"/><path class="tc td" d="M297.1 196.2a3.6 3.6 0 1 0 7.2 0a3.6 3.6 0 1 0 -7.2 0Z"/><path class="tk" d="M314.0 210.7l0 -6.1M353.9 207.0l0 -6.1"/><path class="tc t2" d="M308.0 201.2a5.9 5.9 0 1 0 11.9 0a5.9 5.9 0 1 0 -11.9 0Z"/><path class="tc td" d="M308.5 203.0a3.7 3.7 0 1 0 7.4 0a3.7 3.7 0 1 0 -7.4 0ZM348.4 199.3a3.7 3.7 0 1 0 7.4 0a3.7 3.7 0 1 0 -7.4 0Z"/><path class="tc t1" d="M347.9 197.5a6.0 6.0 0 1 0 11.9 0a6.0 6.0 0 1 0 -11.9 0Z"/><path class="tk" d="M348.8 213.7l0 -6.1M279.0 215.5l0 -6.7"/><path class="tc t2" d="M342.8 204.1a6.0 6.0 0 1 0 12.0 0a6.0 6.0 0 1 0 -12.0 0Z"/><path class="tc td" d="M343.3 205.9a3.7 3.7 0 1 0 7.5 0a3.7 3.7 0 1 0 -7.5 0ZM273.0 206.9a4.1 4.1 0 1 0 8.1 0a4.1 4.1 0 1 0 -8.1 0Z"/><path class="tc t1" d="M272.4 205.0a6.6 6.6 0 1 0 13.1 0a6.6 6.6 0 1 0 -13.1 0Z"/><path class="tk" d="M-68.5 220.6l0 -5.2M283.1 220.5l0 -5.3"/><path class="tc t1" d="M-73.6 212.5a5.1 5.1 0 1 0 10.1 0a5.1 5.1 0 1 0 -10.1 0Z"/><path class="tc td" d="M-73.2 214.0a3.1 3.1 0 1 0 6.3 0a3.1 3.1 0 1 0 -6.3 0ZM278.4 213.7a3.2 3.2 0 1 0 6.4 0a3.2 3.2 0 1 0 -6.4 0Z"/><path class="tc t2" d="M278.0 212.2a5.2 5.2 0 1 0 10.3 0a5.2 5.2 0 1 0 -10.3 0Z"/><path class="tk" d="M249.0 222.1l0 -6.4"/><path class="tc t2" d="M242.7 212.0a6.3 6.3 0 1 0 12.6 0a6.3 6.3 0 1 0 -12.6 0Z"/><path class="tc td" d="M243.2 213.9a3.9 3.9 0 1 0 7.8 0a3.9 3.9 0 1 0 -7.8 0Z"/><path class="tk" d="M-44.1 235.2l0 -5.4M228.0 238.0l0 -6.4"/><path class="tc t2" d="M-49.3 226.8a5.3 5.3 0 1 0 10.5 0a5.3 5.3 0 1 0 -10.5 0ZM221.7 227.9a6.3 6.3 0 1 0 12.6 0a6.3 6.3 0 1 0 -12.6 0Z"/><path class="tc td" d="M-48.9 228.4a3.3 3.3 0 1 0 6.5 0a3.3 3.3 0 1 0 -6.5 0ZM222.2 229.8a3.9 3.9 0 1 0 7.8 0a3.9 3.9 0 1 0 -7.8 0Z"/><path class="tk" d="M197.5 247.8l0 -5.3"/><path class="tc t2" d="M192.2 239.4a5.2 5.2 0 1 0 10.5 0a5.2 5.2 0 1 0 -10.5 0Z"/><path class="tc td" d="M192.7 241.0a3.2 3.2 0 1 0 6.5 0a3.2 3.2 0 1 0 -6.5 0Z"/><path class="tk" d="M206.7 249.7l0 -5.1"/><path class="tc t1" d="M201.7 241.7a5.0 5.0 0 1 0 10.0 0a5.0 5.0 0 1 0 -10.0 0Z"/><path class="tc td" d="M202.1 243.2a3.1 3.1 0 1 0 6.2 0a3.1 3.1 0 1 0 -6.2 0Z"/><path class="tk" d="M-39.3 255.3l0 -4.7"/><path class="tc t1" d="M-44.0 247.9a4.6 4.6 0 1 0 9.2 0a4.6 4.6 0 1 0 -9.2 0Z"/><path class="tc td" d="M-43.6 249.3a2.9 2.9 0 1 0 5.7 0a2.9 2.9 0 1 0 -5.7 0Z"/><path class="tk" d="M208.4 264.3l0 -5.0M183.6 266.4l0 -4.7"/><path class="tc t2" d="M203.5 256.5a4.9 4.9 0 1 0 9.8 0a4.9 4.9 0 1 0 -9.8 0ZM179.0 259.1a4.6 4.6 0 1 0 9.2 0a4.6 4.6 0 1 0 -9.2 0Z"/><path class="tc td" d="M203.9 257.9a3.0 3.0 0 1 0 6.1 0a3.0 3.0 0 1 0 -6.1 0ZM179.4 260.5a2.8 2.8 0 1 0 5.7 0a2.8 2.8 0 1 0 -5.7 0Z"/><path class="tk" d="M-16.0 270.4l0 -5.1"/><path class="tc t1" d="M-20.9 262.5a5.0 5.0 0 1 0 9.9 0a5.0 5.0 0 1 0 -9.9 0Z"/><path class="tc td" d="M-20.5 264.0a3.1 3.1 0 1 0 6.2 0a3.1 3.1 0 1 0 -6.2 0Z"/><path class="tk" d="M177.8 274.2l0 -4.9"/><path class="tc t1" d="M173.0 266.5a4.8 4.8 0 1 0 9.6 0a4.8 4.8 0 1 0 -9.6 0Z"/><path class="tc td" d="M173.4 268.0a3.0 3.0 0 1 0 5.9 0a3.0 3.0 0 1 0 -5.9 0Z"/><path class="tk" d="M153.3 276.6l0 -6.5"/><path class="tc t1" d="M146.9 266.5a6.3 6.3 0 1 0 12.7 0a6.3 6.3 0 1 0 -12.7 0Z"/><path class="tc td" d="M147.4 268.4a3.9 3.9 0 1 0 7.9 0a3.9 3.9 0 1 0 -7.9 0Z"/><path class="tk" d="M-10.2 290.4l0 -6.6M162.5 292.5l0 -6.3"/><path class="tp t1" d="M-10.2 272.7L-14.6 283.8L-5.7 283.8ZM-10.2 277.8L-15.3 285.7L-5.0 285.7Z"/><path class="tc t1" d="M156.3 282.5a6.2 6.2 0 1 0 12.4 0a6.2 6.2 0 1 0 -12.4 0Z"/><path class="tc td" d="M156.8 284.4a3.9 3.9 0 1 0 7.7 0a3.9 3.9 0 1 0 -7.7 0Z"/><path class="tk" d="M138.9 295.1l0 -6.1"/><path class="tc t2" d="M132.9 285.5a6.0 6.0 0 1 0 12.0 0a6.0 6.0 0 1 0 -12.0 0Z"/><path class="tc td" d="M133.4 287.3a3.7 3.7 0 1 0 7.5 0a3.7 3.7 0 1 0 -7.5 0Z"/><path class="tk" d="M20.3 301.3l0 -7.4"/><path class="tp t2" d="M20.3 281.4L15.3 293.9L25.3 293.9ZM20.3 287.1L14.5 296.1L26.1 296.1Z"/><path class="tk" d="M135.3 304.8l0 -5.0M114.6 308.8l0 -8.1"/><path class="tc t1" d="M130.4 296.9a4.9 4.9 0 1 0 9.8 0a4.9 4.9 0 1 0 -9.8 0Z"/><path class="tc td" d="M130.8 298.4a3.1 3.1 0 1 0 6.1 0a3.1 3.1 0 1 0 -6.1 0Z"/><path class="tp t2" d="M114.6 287.0L109.1 300.7L120.1 300.7ZM114.6 293.2L108.3 303.1L121.0 303.1Z"/><path class="tk" d="M35.8 319.5l0 -5.3"/><path class="tc t2" d="M30.5 311.1a5.2 5.2 0 1 0 10.4 0a5.2 5.2 0 1 0 -10.4 0Z"/><path class="tc td" d="M31.0 312.7a3.2 3.2 0 1 0 6.5 0a3.2 3.2 0 1 0 -6.5 0Z"/><path class="tk" d="M131.1 325.2l0 -6.0"/><path class="tp t2" d="M131.1 309.0L127.0 319.1L135.2 319.1ZM131.1 313.6L126.4 320.9L135.8 320.9Z"/><path class="tk" d="M66.1 329.4l0 -5.6M105.6 328.2l0 -4.6"/><path class="tc t2" d="M60.6 320.6a5.5 5.5 0 1 0 10.9 0a5.5 5.5 0 1 0 -10.9 0ZM101.2 321.1a4.5 4.5 0 1 0 8.9 0a4.5 4.5 0 1 0 -8.9 0Z"/><path class="tc td" d="M61.1 322.3a3.4 3.4 0 1 0 6.8 0a3.4 3.4 0 1 0 -6.8 0ZM101.5 322.4a2.8 2.8 0 1 0 5.5 0a2.8 2.8 0 1 0 -5.5 0Z"/><path class="tk" d="M101.8 336.4l0 -6.5"/><path class="tc t2" d="M95.5 326.3a6.3 6.3 0 1 0 12.7 0a6.3 6.3 0 1 0 -12.7 0Z"/><path class="tc td" d="M96.0 328.2a3.9 3.9 0 1 0 7.9 0a3.9 3.9 0 1 0 -7.9 0Z"/><path class="tk" d="M74.6 337.6l0 -5.0"/><path class="tc t2" d="M69.7 329.7a4.9 4.9 0 1 0 9.8 0a4.9 4.9 0 1 0 -9.8 0Z"/><path class="tc td" d="M70.1 331.2a3.0 3.0 0 1 0 6.1 0a3.0 3.0 0 1 0 -6.1 0Z"/><path class="tk" d="M81.8 352.7l0 -8.4M54.2 354.0l0 -5.9"/><path class="tp t2" d="M81.8 330.1L76.1 344.3L87.5 344.3ZM81.8 336.5L75.2 346.8L88.4 346.8Z"/><path class="tc t1" d="M48.5 344.8a5.8 5.8 0 1 0 11.5 0a5.8 5.8 0 1 0 -11.5 0Z"/><path class="tc td" d="M48.9 346.5a3.6 3.6 0 1 0 7.1 0a3.6 3.6 0 1 0 -7.1 0Z"/><path class="tk" d="M47.8 358.0l0 -6.4M19.8 356.9l0 -4.5"/><path class="tp t2" d="M47.8 340.7L43.4 351.6L52.1 351.6ZM47.8 345.6L42.7 353.5L52.8 353.5Z"/><path class="tc t2" d="M15.4 349.8a4.4 4.4 0 1 0 8.8 0a4.4 4.4 0 1 0 -8.8 0Z"/><path class="tc td" d="M15.8 351.1a2.7 2.7 0 1 0 5.5 0a2.7 2.7 0 1 0 -5.5 0Z"/><path class="tk" d="M-45.2 364.1l0 -6.0M-136.4 361.7l0 -6.5"/><path class="tc t2" d="M-51.0 354.8a5.9 5.9 0 1 0 11.7 0a5.9 5.9 0 1 0 -11.7 0ZM-142.8 351.5a6.3 6.3 0 1 0 12.7 0a6.3 6.3 0 1 0 -12.7 0Z"/><path class="tc td" d="M-50.5 356.5a3.6 3.6 0 1 0 7.3 0a3.6 3.6 0 1 0 -7.3 0ZM-142.3 353.4a3.9 3.9 0 1 0 7.9 0a3.9 3.9 0 1 0 -7.9 0Z"/><path class="tk" d="M-10.6 367.4l0 -6.3M-105.2 369.2l0 -5.5"/><path class="tp t2" d="M-10.6 350.4L-14.9 361.1L-6.3 361.1ZM-10.6 355.3L-15.5 362.9L-5.6 362.9Z"/><path class="tc t2" d="M-110.5 360.7a5.3 5.3 0 1 0 10.7 0a5.3 5.3 0 1 0 -10.7 0Z"/><path class="tc td" d="M-110.1 362.3a3.3 3.3 0 1 0 6.6 0a3.3 3.3 0 1 0 -6.6 0Z"/><path class="tk" d="M23.3 372.6l0 -4.8"/><path class="tc t2" d="M18.5 365.0a4.7 4.7 0 1 0 9.5 0a4.7 4.7 0 1 0 -9.5 0Z"/><path class="tc td" d="M18.9 366.5a2.9 2.9 0 1 0 5.9 0a2.9 2.9 0 1 0 -5.9 0Z"/><path class="tk" d="M-74.1 375.7l0 -5.2"/><path class="tc t1" d="M-79.3 367.5a5.1 5.1 0 1 0 10.2 0a5.1 5.1 0 1 0 -10.2 0Z"/><path class="tc td" d="M-78.9 369.1a3.2 3.2 0 1 0 6.3 0a3.2 3.2 0 1 0 -6.3 0Z"/><path class="bn" d="M336.4 483.4L343.2 483.0M361.0 481.9L367.8 481.5M385.9 483.7L392.7 483.7M408.9 480.4L415.7 481.5M433.9 481.7L440.6 482.8"/><path class="bnb" d="M336.8 481.2L342.9 480.8M361.3 479.7L367.4 479.3M386.3 481.5L392.4 481.5M409.3 478.3L415.3 479.2M434.3 479.6L440.3 480.5"/><path class="bn" d="M312.0 486.3L318.7 485.4"/><path class="bnb" d="M312.3 484.1L318.4 483.2"/><path class="s1 fa" d="M993.2 492.1L985.0 494.2L985.0 490.0L993.2 487.9ZM613.3 491.7L613.0 495.1L613.0 490.9L613.3 487.6Z"/><path class="s2 fa" d="M985.0 494.2L982.6 491.2L982.6 487.0L985.0 490.0ZM985.0 490.0L982.6 487.0L983.8 487.4ZM990.8 484.9L993.2 487.9L992.0 485.3ZM613.0 495.1L602.0 494.8L602.0 490.6L613.0 490.9ZM602.0 490.6L602.3 487.2L602.1 487.8ZM613.3 487.6L613.0 490.9L613.2 488.1Z"/><path class="rk fa" d="M982.6 487.0L990.8 484.9L992.0 485.3L983.8 487.4ZM602.3 487.2L613.3 487.6L613.2 488.1L602.1 487.8Z"/><path class="rf fa" d="M993.2 487.9L985.0 490.0L983.8 487.4L992.0 485.3ZM613.0 490.9L602.0 490.6L602.1 487.8L613.2 488.1Z"/><path class="bn" d="M189.4 490.5L196.2 490.7M213.8 490.9L220.6 490.6M238.8 492.2L245.6 491.9M263.4 491.0L270.2 490.7M288.0 489.8L294.8 489.5"/><path class="bnb" d="M189.7 488.3L195.8 488.5M214.1 488.7L220.3 488.4M239.1 490.0L245.2 489.7M263.7 488.8L269.9 488.5M288.4 487.6L294.5 487.3"/><path class="s1 fa" d="M632.5 493.4L631.8 497.8L631.8 493.6L632.5 489.3ZM625.3 497.4L624.7 500.9L624.7 496.7L625.3 493.2ZM999.2 499.8L992.7 501.5L992.7 497.4L999.2 495.6ZM652.2 500.3L644.3 500.7L644.3 496.5L652.2 496.1ZM644.7 503.4L636.7 503.9L636.7 499.7L644.7 499.3Z"/><path class="s2 fa" d="M631.8 497.8L625.3 497.4L625.3 493.2L631.8 493.6ZM624.7 500.9L616.7 500.5L616.7 496.3L624.7 496.7ZM992.7 501.5L987.5 495.0L987.5 490.8L992.7 497.4ZM987.5 490.8L994.0 489.1L990.8 488.7ZM999.2 495.6L992.7 497.4L996.0 495.2ZM636.7 503.9L635.5 496.9L635.5 492.7L636.7 499.7ZM643.9 496.4L643.4 493.8L643.4 489.6L643.9 492.2Z"/><path class="rf fa" d="M632.5 489.3L631.8 493.6L625.3 493.2L624.7 496.7L616.7 496.3L618.0 488.4ZM992.7 497.4L987.5 490.8L990.8 488.7L996.0 495.2ZM651.0 489.2L652.2 496.1L644.3 496.5L644.7 499.3L636.7 499.7L635.5 492.7L643.9 492.2L643.4 489.6Z"/><path class="rk fa" d="M994.0 489.1L999.2 495.6L996.0 495.2L990.8 488.7Z"/><path class="s1 fg" d="M667.6 494.5L666.0 498.0L666.0 493.9L667.6 490.3Z"/><path class="s2 fg" d="M666.0 498.0L655.0 496.3L655.0 492.1L666.0 493.9ZM667.6 490.3L666.0 493.9L666.8 490.9ZM655.0 492.1L656.6 488.6L655.8 489.1Z"/><path class="rk fg" d="M656.6 488.6L667.6 490.3L666.8 490.9L655.8 489.1Z"/><path class="rf fg" d="M666.0 493.9L655.0 492.1L655.8 489.1L666.8 490.9Z"/><path class="bn" d="M346.0 496.6L339.2 495.7"/><path class="bnb" d="M345.6 494.3L339.6 493.5"/><path class="s1 fd" d="M673.9 499.5L673.0 504.2L673.0 500.1L673.9 495.4Z"/><path class="s2 fd" d="M673.0 504.2L665.2 503.7L665.2 499.5L673.0 500.1ZM673.0 500.1L665.2 499.5L669.1 498.5ZM666.1 494.9L673.9 495.4L670.0 493.8Z"/><path class="rk fd" d="M665.2 499.5L666.1 494.9L670.0 493.8L669.1 498.5Z"/><path class="rf fd" d="M673.9 495.4L673.0 500.1L669.1 498.5L670.0 493.8Z"/><path class="bn" d="M410.4 501.7L403.7 500.8M385.5 502.0L378.7 502.0M361.6 501.2L354.9 502.6M264.5 501.8L257.7 501.7M324.1 497.7L318.2 501.2M355.2 497.9L356.7 504.6"/><path class="bnb" d="M410.1 499.4L404.0 498.6M385.1 499.8L379.0 499.8M361.2 499.1L355.2 500.4M264.1 499.6L258.0 499.5M323.8 495.7L318.5 498.8M355.2 496.1L356.6 502.0"/><path class="s1 fd" d="M803.1 506.8L803.1 509.1L803.1 505.0L803.1 502.7Z"/><path class="s2 fd" d="M803.1 509.1L796.9 509.0L796.9 504.9L803.1 505.0ZM803.1 502.7L803.1 505.0L803.1 503.1ZM796.9 504.9L797.0 502.6L796.9 503.0Z"/><path class="rk fd" d="M797.0 502.6L803.1 502.7L803.1 503.1L796.9 503.0Z"/><path class="rf fd" d="M803.1 505.0L796.9 504.9L796.9 503.0L803.1 503.1Z"/><path class="s1 fh" d="M633.2 502.0L632.5 508.2L632.5 504.0L633.2 497.8Z"/><path class="s2 fh" d="M632.5 508.2L626.3 507.9L626.3 503.7L632.5 504.0ZM632.5 504.0L626.3 503.7L629.4 502.7ZM627.1 497.5L633.2 497.8L630.2 496.5Z"/><path class="rk fh" d="M626.3 503.7L627.1 497.5L630.2 496.5L629.4 502.7Z"/><path class="rf fh" d="M633.2 497.8L632.5 504.0L629.4 502.7L630.2 496.5Z"/><path class="bn" d="M227.5 505.6L234.2 504.7M276.8 504.6L283.5 504.3M301.6 505.7L308.4 506.5M433.7 507.0L426.9 506.2M337.5 506.3L330.7 506.4M313.4 504.5L306.6 504.1M289.2 503.8L282.4 504.0M241.8 506.1L235.3 508.2M244.3 503.0L246.7 509.3M287.7 502.3L289.0 508.9"/><path class="bnb" d="M227.8 503.4L233.9 502.5M277.1 502.4L283.2 502.1M302.0 503.6L308.0 504.2M433.4 504.7L427.3 504.0M337.1 504.1L331.0 504.2M313.1 502.3L307.0 502.0M288.9 501.6L282.7 501.8M241.4 504.0L235.6 505.9M244.4 501.1L246.6 506.8M287.8 500.4L289.0 506.4"/><path class="s1 fh" d="M795.9 511.7L786.7 511.7L786.7 507.5L795.9 507.5Z"/><path class="s2 fh" d="M786.7 511.7L786.6 508.1L786.6 503.9L786.7 507.5ZM786.7 507.5L786.6 503.9L786.7 504.5ZM795.9 503.9L795.9 507.5L795.9 504.5Z"/><path class="rk fh" d="M786.6 503.9L795.9 503.9L795.9 504.5L786.7 504.5Z"/><path class="rf fh" d="M795.9 507.5L786.7 507.5L786.7 504.5L795.9 504.5Z"/><path class="bn" d="M491.0 508.6L497.8 508.6M515.6 511.2L522.4 511.6M737.8 510.3L731.0 509.6M713.8 509.2L707.0 509.4M204.1 510.8L210.8 509.4M252.4 508.5L259.2 508.6M325.6 507.7L332.4 507.6M350.5 509.0L357.2 509.7M398.5 508.5L405.3 509.2M422.3 511.2L429.1 511.9M447.0 509.4L453.8 509.1M471.7 508.8L478.5 508.6M458.2 509.1L451.4 508.4M335.0 507.4L328.2 507.7"/><path class="bnb" d="M491.4 506.4L497.5 506.4M515.9 509.0L522.0 509.3M737.4 508.0L731.4 507.4M713.5 507.0L707.3 507.2M204.4 508.5L210.4 507.2M252.8 506.3L258.9 506.4M326.0 505.5L332.1 505.4M350.8 506.9L356.9 507.5M398.9 506.4L405.0 507.0M422.7 509.0L428.7 509.7M447.4 507.2L453.5 506.9M472.0 506.6L478.1 506.4M457.8 506.9L451.7 506.3M334.7 505.2L328.6 505.5"/><path class="s2 fc" d="M887.1 516.2L886.9 511.7L886.9 507.5L887.1 512.0ZM901.2 507.3L901.4 511.9L901.3 508.3ZM887.1 512.0L886.9 507.5L887.0 508.5Z"/><path class="s1 fc" d="M901.4 516.0L887.1 516.2L887.1 512.0L901.4 511.9Z"/><path class="rk fc" d="M886.9 507.5L901.2 507.3L901.3 508.3L887.0 508.5Z"/><path class="rf fc" d="M901.4 511.9L887.1 512.0L887.0 508.5L901.3 508.3Z"/><path class="s1 fa" d="M932.5 512.2L932.4 515.4L932.4 511.2L932.5 508.0Z"/><path class="s2 fa" d="M932.4 515.4L924.4 515.2L924.4 511.1L932.4 511.2ZM932.5 508.0L932.4 511.2L932.5 508.5ZM924.4 511.1L924.5 507.9L924.4 508.4Z"/><path class="rk fa" d="M924.5 507.9L932.5 508.0L932.5 508.5L924.4 508.4Z"/><path class="rf fa" d="M932.4 511.2L924.4 511.1L924.4 508.4L932.5 508.5Z"/><path class="s1 fg" d="M919.9 515.3L910.6 515.4L910.6 511.2L919.9 511.2Z"/><path class="s2 fg" d="M910.6 515.4L910.5 511.8L910.5 507.6L910.6 511.2ZM919.8 507.6L919.9 511.2L919.8 508.1ZM910.6 511.2L910.5 507.6L910.6 508.2Z"/><path class="rk fg" d="M910.5 507.6L919.8 507.6L919.8 508.1L910.6 508.2Z"/><path class="rf fg" d="M919.9 511.2L910.6 511.2L910.6 508.2L919.8 508.1Z"/><path class="bn" d="M539.8 513.0L546.6 513.7M564.1 515.5L570.9 516.2M761.1 514.1L754.5 512.6M699.8 514.2L705.4 518.0M191.2 515.7L198.0 515.5M215.8 514.0L222.6 514.4M240.3 515.1L247.1 515.2M264.8 515.5L271.6 515.1M289.5 513.9L296.3 513.8M314.3 516.1L321.1 516.1M338.9 513.5L345.7 513.4M363.6 513.0L370.4 512.9M388.2 515.3L395.0 515.6M413.0 513.3L419.8 513.2M437.3 512.8L444.0 512.1M462.3 512.7L469.1 512.0M375.0 512.9L381.7 511.5"/><path class="bnb" d="M540.2 510.8L546.2 511.4M564.5 513.3L570.5 514.0M760.8 511.8L754.8 510.5M700.1 512.2L705.1 515.6M191.5 513.5L197.6 513.3M216.2 511.8L222.3 512.1M240.6 513.0L246.8 513.0M265.1 513.2L271.2 512.9M289.8 511.7L295.9 511.6M314.6 513.9L320.7 513.9M339.2 511.3L345.4 511.2M363.9 510.8L370.0 510.7M388.6 513.1L394.7 513.3M413.3 511.1L419.4 511.0M437.6 510.6L443.7 509.9M462.7 510.5L468.8 509.9M375.4 510.6L381.4 509.4"/><path class="bn" d="M588.0 518.4L594.7 519.6M782.4 521.1L776.0 518.8M724.0 519.9L730.8 520.9M117.7 518.7L124.5 518.6M142.5 519.6L149.3 518.9M167.0 517.3L173.7 516.4"/><path class="bnb" d="M588.3 516.3L594.3 517.3M782.1 518.8L776.3 516.8M724.4 517.7L730.4 518.6M118.0 516.5L124.1 516.4M142.9 517.4L149.0 516.8M167.3 515.1L173.4 514.3"/><path class="s1 fa" d="M880.6 527.0L871.2 527.6L871.2 523.4L880.6 522.8ZM796.9 524.5L792.0 524.6L792.0 520.5L796.9 520.4Z"/><path class="s2 fa" d="M871.2 527.6L870.1 521.9L870.1 517.7L871.2 523.4ZM880.6 522.8L871.2 523.4L875.9 521.8ZM870.1 517.7L879.5 517.1L874.8 516.1ZM792.0 524.6L791.8 521.7L791.8 517.5L792.0 520.5ZM791.8 517.5L796.7 517.4L794.2 516.5ZM796.9 520.4L792.0 520.5L794.4 519.5Z"/><path class="rk fa" d="M879.5 517.1L880.6 522.8L875.9 521.8L874.8 516.1ZM796.7 517.4L796.9 520.4L794.4 519.5L794.2 516.5Z"/><path class="rf fa" d="M871.2 523.4L870.1 517.7L874.8 516.1L875.9 521.8ZM792.0 520.5L791.8 517.5L794.2 516.5L794.4 519.5Z"/><path class="s2 fd" d="M985.6 529.1L976.3 529.0L976.3 524.9L985.6 524.9ZM976.3 524.9L976.4 521.0L976.4 521.6ZM985.6 521.1L985.6 524.9L985.6 521.7Z"/><path class="s1 fd" d="M985.6 525.3L985.6 529.1L985.6 524.9L985.6 521.1Z"/><path class="rk fd" d="M976.4 521.0L985.6 521.1L985.6 521.7L976.4 521.6Z"/><path class="rf fd" d="M985.6 524.9L976.3 524.9L976.4 521.6L985.6 521.7Z"/><path class="bn" d="M612.5 520.9L619.1 522.7"/><path class="bnb" d="M612.9 518.8L618.8 520.4"/><path class="bu" d="M752.5 524.2a3.5 3.5 0 1 0 6.9 0a3.5 3.5 0 1 0 -6.9 0Z"/><path class="bu2" d="M752.1 525.3a2.1 2.1 0 1 0 4.3 0a2.1 2.1 0 1 0 -4.3 0Z"/><path class="s1 fa" d="M927.3 533.3L911.1 534.1L911.1 529.9L927.3 529.1Z"/><path class="s2 fa" d="M911.1 534.1L909.2 521.8L909.2 517.7L911.1 529.9ZM927.3 529.1L911.1 529.9L919.2 528.2ZM909.2 517.7L925.4 516.9L917.3 516.0Z"/><path class="rk fa" d="M925.4 516.9L927.3 529.1L919.2 528.2L917.3 516.0Z"/><path class="rf fa" d="M911.1 529.9L909.2 517.7L917.3 516.0L919.2 528.2Z"/><path class="bn" d="M730.9 526.8L724.2 528.4M707.9 527.5L701.1 526.9M697.6 526.7L690.9 528.2M661.5 529.0L668.3 529.4M651.3 531.1L645.8 527.1M630.0 527.4L623.2 527.1"/><path class="bnb" d="M730.5 524.7L724.6 526.1M707.6 525.3L701.5 524.7M697.2 524.6L691.2 525.9M661.9 526.8L668.0 527.1M651.0 528.7L646.1 525.1M629.6 525.2L623.5 525.0"/><path class="s2 fa" d="M790.7 537.8L783.6 537.8L783.6 533.6L790.7 533.6ZM783.6 537.8L783.6 535.1L783.6 530.9L783.6 533.6ZM783.6 535.1L783.6 533.1L783.6 528.9L783.6 530.9ZM821.2 537.3L820.1 530.5L820.1 526.3L821.2 533.1ZM820.1 526.3L829.5 525.9L824.8 524.8ZM830.6 532.6L821.2 533.1L825.9 531.5Z"/><path class="rf fa" d="M790.7 533.6L783.6 533.6L783.6 530.9L783.6 528.9L790.7 528.9ZM821.2 533.1L820.1 526.3L824.8 524.8L825.9 531.5Z"/><path class="s1 fa" d="M830.6 536.8L821.2 537.3L821.2 533.1L830.6 532.6Z"/><path class="rk fa" d="M829.5 525.9L830.6 532.6L825.9 531.5L824.8 524.8Z"/><path class="s1 fh" d="M851.1 535.5L840.8 536.1L840.8 531.9L851.1 531.3Z"/><path class="s2 fh" d="M840.8 536.1L839.7 530.4L839.7 526.2L840.8 531.9ZM840.8 531.9L839.7 526.2L840.2 527.8ZM850.0 525.6L851.1 531.3L850.5 527.2Z"/><path class="rk fh" d="M839.7 526.2L850.0 525.6L850.5 527.2L840.2 527.8Z"/><path class="rf fh" d="M851.1 531.3L840.8 531.9L840.2 527.8L850.5 527.2Z"/><path class="bn" d="M628.8 531.2L635.0 534.2M691.9 529.3L698.2 532.0M711.3 533.9L717.7 536.1M672.0 531.8L665.2 531.9"/><path class="bnb" d="M629.2 529.2L634.7 531.8M692.2 527.2L697.9 529.6M711.6 531.8L717.4 533.8M671.6 529.6L665.5 529.7"/><path class="bu" d="M634.4 533.7a4.4 4.4 0 1 0 8.8 0a4.4 4.4 0 1 0 -8.8 0Z"/><path class="bu2" d="M634.0 535.1a2.7 2.7 0 1 0 5.5 0a2.7 2.7 0 1 0 -5.5 0Z"/><path class="s1 fa" d="M1033.8 537.4L1032.8 541.1L1032.8 536.9L1033.8 533.2Z"/><path class="s2 fa" d="M1032.8 541.1L1021.9 540.1L1021.9 535.9L1032.8 536.9ZM1033.8 533.2L1032.8 536.9L1033.3 533.8ZM1021.9 535.9L1022.9 532.2L1022.4 532.8Z"/><path class="rk fa" d="M1022.9 532.2L1033.8 533.2L1033.3 533.8L1022.4 532.8Z"/><path class="rf fa" d="M1032.8 536.9L1021.9 535.9L1022.4 532.8L1033.3 533.8Z"/><path class="tk" d="M744.4 537.0l0 -7.2M762.8 536.8l0 -7.8"/><path class="tc t1" d="M737.4 525.8a7.1 7.1 0 1 0 14.1 0a7.1 7.1 0 1 0 -14.1 0Z"/><path class="tc td" d="M738.0 527.9a4.4 4.4 0 1 0 8.7 0a4.4 4.4 0 1 0 -8.7 0Z"/><path class="tp t2" d="M762.8 515.7L757.5 529.0L768.1 529.0ZM762.8 521.8L756.6 531.2L768.9 531.2Z"/><path class="bn" d="M780.5 535.4L773.8 536.4"/><path class="bnb" d="M780.2 533.3L774.1 534.1"/><path class="bu" d="M729.5 537.5a3.8 3.8 0 1 0 7.7 0a3.8 3.8 0 1 0 -7.7 0Z"/><path class="bu2" d="M729.1 538.7a2.4 2.4 0 1 0 4.8 0a2.4 2.4 0 1 0 -4.8 0Z"/><path class="s1 fa" d="M1009.7 550.7L993.1 551.1L993.1 546.9L1009.7 546.6ZM999.2 540.7L992.2 540.9L992.2 536.7L999.2 536.5ZM848.5 544.8L841.9 545.0L841.9 540.9L848.5 540.6ZM909.8 544.4L903.6 545.6L903.6 541.5L909.8 540.3Z"/><path class="s2 fa" d="M993.1 551.1L992.8 546.9L992.8 542.7L993.1 546.9ZM999.6 546.8L999.2 540.7L999.2 536.5L999.6 542.6ZM992.2 540.9L991.9 536.4L991.9 532.2L992.2 536.7ZM841.9 545.0L841.1 539.4L841.1 535.3L841.9 540.9ZM848.5 540.6L841.9 540.9L845.2 539.5ZM841.1 535.3L847.8 535.0L844.5 533.9ZM903.6 545.6L901.2 541.7L901.2 537.5L903.6 541.5ZM909.8 540.3L903.6 541.5L906.7 539.6ZM901.2 537.5L907.4 536.3L904.3 535.6Z"/><path class="rf fa" d="M1008.7 531.9L1009.7 546.6L993.1 546.9L992.8 542.7L999.6 542.6L999.2 536.5L992.2 536.7L991.9 532.2ZM841.9 540.9L841.1 535.3L844.5 533.9L845.2 539.5ZM903.6 541.5L901.2 537.5L904.3 535.6L906.7 539.6Z"/><path class="s1 fh" d="M930.7 549.6L921.2 550.2L921.2 546.0L930.7 545.4ZM878.5 543.4L873.1 543.6L873.1 539.5L878.5 539.2Z"/><path class="s2 fh" d="M921.2 550.2L919.1 538.9L919.1 534.7L921.2 546.0ZM930.7 545.4L921.2 546.0L926.0 544.4ZM919.1 534.7L928.6 534.1L923.8 533.1ZM873.1 543.6L872.5 539.7L872.5 535.5L873.1 539.5ZM878.5 539.2L873.1 539.5L875.8 538.3ZM872.5 535.5L878.0 535.3L875.3 534.3Z"/><path class="rk fh" d="M928.6 534.1L930.7 545.4L926.0 544.4L923.8 533.1ZM878.0 535.3L878.5 539.2L875.8 538.3L875.3 534.3Z"/><path class="rf fh" d="M921.2 546.0L919.1 534.7L923.8 533.1L926.0 544.4ZM873.1 539.5L872.5 535.5L875.3 534.3L875.8 538.3Z"/><path class="rk fa" d="M847.8 535.0L848.5 540.6L845.2 539.5L844.5 533.9ZM907.4 536.3L909.8 540.3L906.7 539.6L904.3 535.6Z"/><path class="tk" d="M637.5 544.3l0 -6.6M708.9 543.5l0 -5.9"/><path class="tc t2" d="M631.0 533.8a6.5 6.5 0 1 0 13.0 0a6.5 6.5 0 1 0 -13.0 0ZM703.1 534.3a5.8 5.8 0 1 0 11.6 0a5.8 5.8 0 1 0 -11.6 0Z"/><path class="tc td" d="M631.5 535.8a4.0 4.0 0 1 0 8.1 0a4.0 4.0 0 1 0 -8.1 0ZM703.6 536.0a3.6 3.6 0 1 0 7.2 0a3.6 3.6 0 1 0 -7.2 0Z"/><path class="bn" d="M649.2 539.9L655.7 542.0M733.0 541.1L739.8 541.6"/><path class="bnb" d="M649.5 537.8L655.4 539.7M733.4 538.9L739.5 539.4"/><path class="bu" d="M664.0 542.9a4.0 4.0 0 1 0 8.0 0a4.0 4.0 0 1 0 -8.0 0ZM754.8 542.0a4.2 4.2 0 1 0 8.3 0a4.2 4.2 0 1 0 -8.3 0ZM772.4 542.6a3.5 3.5 0 1 0 7.0 0a3.5 3.5 0 1 0 -7.0 0ZM704.0 540.2a4.2 4.2 0 1 0 8.3 0a4.2 4.2 0 1 0 -8.3 0Z"/><path class="bu2" d="M663.6 544.2a2.5 2.5 0 1 0 5.0 0a2.5 2.5 0 1 0 -5.0 0ZM754.4 543.3a2.6 2.6 0 1 0 5.2 0a2.6 2.6 0 1 0 -5.2 0ZM772.1 543.7a2.2 2.2 0 1 0 4.4 0a2.2 2.2 0 1 0 -4.4 0ZM703.6 541.6a2.6 2.6 0 1 0 5.2 0a2.6 2.6 0 1 0 -5.2 0Z"/><path class="s1 fa" d="M889.2 554.3L882.2 554.6L882.2 550.5L889.2 550.1Z"/><path class="s2 fa" d="M882.2 554.6L880.7 545.2L880.7 541.1L882.2 550.5ZM889.2 550.1L882.2 550.5L885.7 549.0ZM880.7 541.1L887.6 540.7L884.1 539.6Z"/><path class="rk fa" d="M887.6 540.7L889.2 550.1L885.7 549.0L884.1 539.6Z"/><path class="rf fa" d="M882.2 550.5L880.7 541.1L884.1 539.6L885.7 549.0Z"/><path class="tk" d="M783.2 548.5l0 -7.2M725.4 550.1l0 -5.3M665.0 547.0l0 -6.8"/><path class="tc t1" d="M776.1 537.3a7.0 7.0 0 1 0 14.1 0a7.0 7.0 0 1 0 -14.1 0ZM720.1 541.7a5.2 5.2 0 1 0 10.5 0a5.2 5.2 0 1 0 -10.5 0Z"/><path class="tc td" d="M776.7 539.4a4.4 4.4 0 1 0 8.7 0a4.4 4.4 0 1 0 -8.7 0ZM720.5 543.3a3.3 3.3 0 1 0 6.5 0a3.3 3.3 0 1 0 -6.5 0ZM658.9 538.3a4.1 4.1 0 1 0 8.3 0a4.1 4.1 0 1 0 -8.3 0Z"/><path class="tc t2" d="M658.4 536.3a6.7 6.7 0 1 0 13.3 0a6.7 6.7 0 1 0 -13.3 0Z"/><path class="bn" d="M670.7 546.7L677.2 549.0M695.4 548.2L702.2 548.3M719.0 547.1L725.4 544.7M709.4 547.9L703.4 544.8"/><path class="bnb" d="M671.1 544.7L676.8 546.7M695.8 546.0L701.9 546.1M719.3 544.8L725.1 542.6M709.1 545.5L703.7 542.7"/><path class="bu" d="M690.3 548.1a3.9 3.9 0 1 0 7.9 0a3.9 3.9 0 1 0 -7.9 0ZM645.7 544.4a4.0 4.0 0 1 0 8.0 0a4.0 4.0 0 1 0 -8.0 0Z"/><path class="bu2" d="M689.9 549.3a2.4 2.4 0 1 0 4.9 0a2.4 2.4 0 1 0 -4.9 0ZM645.3 545.7a2.5 2.5 0 1 0 5.0 0a2.5 2.5 0 1 0 -5.0 0Z"/><path class="s1 fa" d="M1022.2 554.4L1012.7 554.4L1012.7 550.2L1022.2 550.2Z"/><path class="s2 fa" d="M1012.7 554.4L1012.6 551.0L1012.6 546.8L1012.7 550.2ZM1012.7 550.2L1012.6 546.8L1012.7 547.4ZM1022.1 546.8L1022.2 550.2L1022.2 547.3Z"/><path class="rk fa" d="M1012.6 546.8L1022.1 546.8L1022.2 547.3L1012.7 547.4Z"/><path class="rf fa" d="M1022.2 550.2L1012.7 550.2L1012.7 547.4L1022.2 547.3Z"/><path class="s1 ff" d="M951.0 556.5L943.6 556.9L943.6 552.7L951.0 552.3Z"/><path class="s2 ff" d="M943.6 556.9L942.5 549.9L942.5 545.8L943.6 552.7ZM951.0 552.3L943.6 552.7L947.3 551.2ZM942.5 545.8L949.8 545.4L946.2 544.3Z"/><path class="rk ff" d="M949.8 545.4L951.0 552.3L947.3 551.2L946.2 544.3Z"/><path class="rf ff" d="M943.6 552.7L942.5 545.8L946.2 544.3L947.3 551.2Z"/><path class="s2 fd" d="M850.3 556.1L849.2 547.0L849.2 542.9L850.3 552.0Z"/><path class="s1 fd" d="M878.2 550.0L856.4 550.8L856.4 546.7L878.2 545.9ZM857.0 555.9L850.3 556.1L850.3 552.0L857.0 551.7Z"/><path class="rf fd" d="M850.3 552.0L849.2 542.9L877.7 541.8L878.2 545.9L856.4 546.7L857.0 551.7Z"/><path class="tk" d="M687.9 553.8l0 -6.6M753.2 551.6l0 -5.6"/><path class="tc t2" d="M681.4 543.4a6.5 6.5 0 1 0 13.0 0a6.5 6.5 0 1 0 -13.0 0ZM747.8 542.9a5.4 5.4 0 1 0 10.9 0a5.4 5.4 0 1 0 -10.9 0Z"/><path class="tc td" d="M682.0 545.4a4.0 4.0 0 1 0 8.1 0a4.0 4.0 0 1 0 -8.1 0ZM748.2 544.6a3.4 3.4 0 1 0 6.8 0a3.4 3.4 0 1 0 -6.8 0Z"/><path class="bu" d="M719.4 550.8a3.5 3.5 0 1 0 7.0 0a3.5 3.5 0 1 0 -7.0 0ZM630.4 549.2a4.4 4.4 0 1 0 8.8 0a4.4 4.4 0 1 0 -8.8 0ZM739.0 552.2a4.6 4.6 0 1 0 9.3 0a4.6 4.6 0 1 0 -9.3 0Z"/><path class="bu2" d="M719.1 551.9a2.2 2.2 0 1 0 4.3 0a2.2 2.2 0 1 0 -4.3 0ZM630.0 550.6a2.7 2.7 0 1 0 5.4 0a2.7 2.7 0 1 0 -5.4 0ZM738.6 553.7a2.9 2.9 0 1 0 5.7 0a2.9 2.9 0 1 0 -5.7 0Z"/><path class="s1 fa" d="M887.2 559.9L858.7 561.6L858.7 557.5L887.2 555.7ZM670.7 556.0L667.7 562.8L667.7 558.6L670.7 551.8Z"/><path class="s2 fa" d="M858.7 561.6L857.8 557.3L857.8 553.2L858.7 557.5ZM858.7 557.5L857.8 553.2L858.3 554.0ZM886.3 551.4L887.2 555.7L886.8 552.2ZM826.0 560.9L814.1 560.9L814.1 556.7L826.0 556.8ZM814.1 560.9L814.1 557.9L814.1 553.7L814.1 556.7ZM814.1 556.7L814.1 553.7L814.1 554.2ZM826.0 553.7L826.0 556.8L826.0 554.2ZM667.7 562.8L644.1 559.3L644.1 555.1L667.7 558.6ZM644.1 555.1L647.7 548.0L645.9 550.2ZM670.7 551.8L667.7 558.6L669.2 553.9Z"/><path class="rk fa" d="M857.8 553.2L886.3 551.4L886.8 552.2L858.3 554.0ZM814.1 553.7L826.0 553.7L826.0 554.2L814.1 554.2ZM647.7 548.0L670.7 551.8L669.2 553.9L645.9 550.2Z"/><path class="rf fa" d="M887.2 555.7L858.7 557.5L858.3 554.0L886.8 552.2ZM826.0 556.8L814.1 556.7L814.1 554.2L826.0 554.2ZM667.7 558.6L644.1 555.1L645.9 550.2L669.2 553.9Z"/><path class="bn" d="M714.9 553.2L718.1 559.2M709.2 559.1L706.7 552.8"/><path class="bnb" d="M715.1 551.3L717.9 556.7M709.1 556.6L706.8 550.9"/><path class="s1 fd" d="M846.1 557.6L845.3 562.8L845.3 558.6L846.1 553.4ZM852.5 565.5L847.5 565.7L847.5 561.5L852.5 561.3Z"/><path class="s2 fd" d="M845.3 562.8L838.9 562.5L838.9 558.3L845.3 558.6ZM839.1 561.1L831.5 560.7L831.5 556.5L839.1 556.9ZM847.5 565.7L846.7 559.8L846.7 555.6L847.5 561.5ZM846.7 555.6L851.7 555.4L849.2 554.5ZM852.5 561.3L847.5 561.5L850.0 560.4Z"/><path class="rf fd" d="M846.1 553.4L845.3 558.6L838.9 558.3L839.1 556.9L831.5 556.5L832.0 552.7ZM847.5 561.5L846.7 555.6L849.2 554.5L850.0 560.4Z"/><path class="rk fd" d="M851.7 555.4L852.5 561.3L850.0 560.4L849.2 554.5Z"/><path class="tk" d="M714.4 563.7l0 -8.1"/><path class="tc t1" d="M706.5 551.0a7.9 7.9 0 1 0 15.9 0a7.9 7.9 0 1 0 -15.9 0Z"/><path class="tc td" d="M707.1 553.4a4.9 4.9 0 1 0 9.9 0a4.9 4.9 0 1 0 -9.9 0Z"/><path class="s1 fh" d="M956.7 568.7L937.4 571.3L937.4 567.2L956.7 564.6Z"/><path class="s2 fh" d="M937.4 571.3L935.9 567.7L935.9 563.5L937.4 567.2ZM948.9 565.9L947.8 563.2L947.8 559.0L948.9 561.8Z"/><path class="rf fh" d="M954.0 558.1L956.7 564.6L937.4 567.2L935.9 563.5L948.9 561.8L947.8 559.0Z"/><path class="s1 ff" d="M919.4 568.0L898.9 569.4L898.9 565.3L919.4 563.8Z"/><path class="s2 ff" d="M898.9 569.4L898.0 565.1L898.0 561.0L898.9 565.3ZM898.9 565.3L898.0 561.0L898.5 561.8ZM918.4 559.5L919.4 563.8L918.9 560.3Z"/><path class="rk ff" d="M898.0 561.0L918.4 559.5L918.9 560.3L898.5 561.8Z"/><path class="rf ff" d="M919.4 563.8L898.9 565.3L898.5 561.8L918.9 560.3Z"/><path class="s2 fd" d="M886.0 566.8L885.4 561.8L885.4 557.6L886.0 562.7ZM854.8 571.5L853.9 563.6L853.9 559.4L854.8 567.3Z"/><path class="s1 fd" d="M891.9 570.2L854.8 571.5L854.8 567.3L891.9 566.0Z"/><path class="rf fd" d="M860.5 559.2L860.9 563.5L886.0 562.7L885.4 557.6L890.9 557.4L891.9 566.0L854.8 567.3L853.9 559.4Z"/><path class="tk" d="M733.1 565.6l0 -8.2"/><path class="tc t2" d="M725.1 552.8a8.0 8.0 0 1 0 16.0 0a8.0 8.0 0 1 0 -16.0 0Z"/><path class="tc td" d="M725.7 555.2a5.0 5.0 0 1 0 9.9 0a5.0 5.0 0 1 0 -9.9 0Z"/><path class="bu" d="M726.4 564.8a3.9 3.9 0 1 0 7.9 0a3.9 3.9 0 1 0 -7.9 0Z"/><path class="bu2" d="M726.0 566.1a2.4 2.4 0 1 0 4.9 0a2.4 2.4 0 1 0 -4.9 0Z"/><path class="bn" d="M722.1 566.9L725.2 572.9M718.9 572.5L716.4 566.1"/><path class="bnb" d="M722.2 565.0L725.1 570.4M718.8 570.0L716.5 564.3"/><path class="bu" d="M708.0 569.3a3.2 3.2 0 1 0 6.4 0a3.2 3.2 0 1 0 -6.4 0Z"/><path class="bu2" d="M707.7 570.4a2.0 2.0 0 1 0 4.0 0a2.0 2.0 0 1 0 -4.0 0Z"/><path class="s1 fc" d="M792.0 579.8L783.3 581.1L783.3 577.0L792.0 575.6Z"/><path class="s2 fc" d="M783.3 581.1L778.9 571.9L778.9 567.7L783.3 577.0ZM792.0 575.6L783.3 577.0L787.7 575.0ZM778.9 567.7L787.6 566.4L783.2 565.7Z"/><path class="rk fc" d="M787.6 566.4L792.0 575.6L787.7 575.0L783.2 565.7Z"/><path class="rf fc" d="M783.3 577.0L778.9 567.7L783.2 565.7L787.7 575.0Z"/><path class="s1 fg" d="M921.6 576.2L886.7 579.0L886.7 574.8L921.6 572.0Z"/><path class="s2 fg" d="M886.7 579.0L885.3 573.4L885.3 569.3L886.7 574.8ZM886.7 574.8L885.3 569.3L886.0 570.7ZM920.2 566.5L921.6 572.0L920.9 567.9Z"/><path class="rk fg" d="M885.3 569.3L920.2 566.5L920.9 567.9L886.0 570.7Z"/><path class="rf fg" d="M921.6 572.0L886.7 574.8L886.0 570.7L920.9 567.9Z"/><path class="tk" d="M702.6 576.3l0 -5.8"/><path class="tc t2" d="M696.9 567.2a5.7 5.7 0 1 0 11.4 0a5.7 5.7 0 1 0 -11.4 0Z"/><path class="tc td" d="M697.4 568.9a3.5 3.5 0 1 0 7.1 0a3.5 3.5 0 1 0 -7.1 0Z"/><path class="bu" d="M692.6 572.5a4.0 4.0 0 1 0 8.0 0a4.0 4.0 0 1 0 -8.0 0Z"/><path class="bu2" d="M692.2 573.8a2.5 2.5 0 1 0 5.0 0a2.5 2.5 0 1 0 -5.0 0Z"/><path class="tk" d="M719.4 582.3l0 -6.4"/><path class="tc t1" d="M713.0 572.2a6.3 6.3 0 1 0 12.6 0a6.3 6.3 0 1 0 -12.6 0Z"/><path class="tc td" d="M713.5 574.1a3.9 3.9 0 1 0 7.8 0a3.9 3.9 0 1 0 -7.8 0Z"/><path class="s1 ff" d="M787.8 588.9L772.6 591.4L772.6 587.2L787.8 584.7Z"/><path class="s2 ff" d="M772.6 591.4L768.0 582.1L768.0 578.0L772.6 587.2Z"/><path class="rf ff" d="M774.0 577.0L776.8 582.8L786.0 581.2L787.8 584.7L772.6 587.2L768.0 578.0Z"/><path class="bn" d="M724.4 581.5L727.9 587.3M719.3 587.0L717.5 580.5"/><path class="bnb" d="M724.6 579.6L727.8 584.8M719.2 584.5L717.6 578.6"/><path class="bu" d="M728.8 583.6a3.7 3.7 0 1 0 7.4 0a3.7 3.7 0 1 0 -7.4 0Z"/><path class="bu2" d="M728.4 584.7a2.3 2.3 0 1 0 4.6 0a2.3 2.3 0 1 0 -4.6 0Z"/><path class="s1 fa" d="M806.9 593.3L797.9 594.7L797.9 590.5L806.9 589.1Z"/><path class="s2 fa" d="M797.9 594.7L792.3 582.7L792.3 578.5L797.9 590.5ZM806.9 589.1L797.9 590.5L802.4 588.5ZM792.3 578.5L801.3 577.1L796.8 576.5Z"/><path class="rk fa" d="M801.3 577.1L806.9 589.1L802.4 588.5L796.8 576.5Z"/><path class="rf fa" d="M797.9 590.5L792.3 578.5L796.8 576.5L802.4 588.5Z"/><path class="tk" d="M736.5 589.3l0 -6.6"/><path class="tc t2" d="M730.1 578.9a6.5 6.5 0 1 0 12.9 0a6.5 6.5 0 1 0 -12.9 0Z"/><path class="tc td" d="M730.6 580.9a4.0 4.0 0 1 0 8.0 0a4.0 4.0 0 1 0 -8.0 0Z"/><path class="bu" d="M713.4 590.4a4.3 4.3 0 1 0 8.7 0a4.3 4.3 0 1 0 -8.7 0Z"/><path class="bu2" d="M713.0 591.8a2.7 2.7 0 1 0 5.4 0a2.7 2.7 0 1 0 -5.4 0Z"/><path class="bn" d="M732.6 594.9L736.1 600.7M731.4 599.2L727.0 594.0"/><path class="bnb" d="M732.8 593.0L735.9 598.3M731.2 596.7L727.2 592.0"/><path class="bu" d="M736.2 597.5a3.2 3.2 0 1 0 6.4 0a3.2 3.2 0 1 0 -6.4 0Z"/><path class="bu2" d="M735.9 598.5a2.0 2.0 0 1 0 4.0 0a2.0 2.0 0 1 0 -4.0 0Z"/><path class="s1 fa" d="M710.7 606.9L703.5 609.0L703.5 604.8L710.7 602.7Z"/><path class="s2 fa" d="M703.5 609.0L698.1 602.9L698.1 598.7L703.5 604.8ZM710.7 602.7L703.5 604.8L707.1 602.5ZM698.1 598.7L705.2 596.6L701.6 596.3Z"/><path class="rk fa" d="M705.2 596.6L710.7 602.7L707.1 602.5L701.6 596.3Z"/><path class="rf fa" d="M703.5 604.8L698.1 598.7L701.6 596.3L707.1 602.5Z"/><path class="tk" d="M751.9 602.4l0 -7.1"/><path class="tc t1" d="M744.9 591.2a7.0 7.0 0 1 0 13.9 0a7.0 7.0 0 1 0 -13.9 0Z"/><path class="tc td" d="M745.5 593.3a4.3 4.3 0 1 0 8.6 0a4.3 4.3 0 1 0 -8.6 0Z"/><path class="s1 fa" d="M719.5 609.4L714.6 610.8L714.6 606.7L719.5 605.2Z"/><path class="s2 fa" d="M714.6 610.8L712.7 608.6L712.7 604.5L714.6 606.7ZM714.6 606.7L712.7 604.5L713.6 604.7ZM717.5 603.0L719.5 605.2L718.5 603.3Z"/><path class="rk fa" d="M712.7 604.5L717.5 603.0L718.5 603.3L713.6 604.7Z"/><path class="rf fa" d="M719.5 605.2L714.6 606.7L713.6 604.7L718.5 603.3Z"/><path class="tk" d="M735.6 609.1l0 -7.5"/><path class="tp t1" d="M735.6 589.0L730.6 601.6L740.6 601.6ZM735.6 594.7L729.8 603.8L741.4 603.8Z"/><path class="bn" d="M746.6 607.2L751.0 612.4M741.0 612.6L737.3 606.9"/><path class="bnb" d="M746.8 605.3L750.7 609.9M740.8 610.1L737.5 605.0"/><path class="bu" d="M759.4 611.4a3.9 3.9 0 1 0 7.9 0a3.9 3.9 0 1 0 -7.9 0ZM738.5 612.9a4.5 4.5 0 1 0 9.0 0a4.5 4.5 0 1 0 -9.0 0Z"/><path class="bu2" d="M759.0 612.6a2.4 2.4 0 1 0 4.9 0a2.4 2.4 0 1 0 -4.9 0ZM738.1 614.3a2.8 2.8 0 1 0 5.6 0a2.8 2.8 0 1 0 -5.6 0Z"/><path class="tk" d="M760.6 618.0l0 -7.3"/><path class="tc t1" d="M753.4 606.5a7.2 7.2 0 1 0 14.4 0a7.2 7.2 0 1 0 -14.4 0Z"/><path class="tc td" d="M754.0 608.7a4.5 4.5 0 1 0 8.9 0a4.5 4.5 0 1 0 -8.9 0Z"/><path class="bn" d="M753.0 621.1L757.2 626.5M746.2 626.7L742.2 621.1"/><path class="bnb" d="M753.2 619.2L757.0 624.0M746.0 624.2L742.4 619.2"/><path class="bu" d="M746.4 626.2a4.2 4.2 0 1 0 8.4 0a4.2 4.2 0 1 0 -8.4 0Z"/><path class="bu2" d="M745.9 627.5a2.6 2.6 0 1 0 5.2 0a2.6 2.6 0 1 0 -5.2 0Z"/><path class="tk" d="M756.3 634.7l0 -8.0"/><path class="tc t1" d="M748.4 622.1a7.9 7.9 0 1 0 15.8 0a7.9 7.9 0 1 0 -15.8 0Z"/><path class="tc td" d="M749.1 624.5a4.9 4.9 0 1 0 9.8 0a4.9 4.9 0 1 0 -9.8 0Z"/><path class="bn" d="M767.1 633.1L771.2 638.5M755.5 639.9L751.6 634.3"/><path class="bnb" d="M767.3 631.2L771.0 636.0M755.3 637.4L751.8 632.4"/><path class="bu" d="M759.9 634.9a3.8 3.8 0 1 0 7.7 0a3.8 3.8 0 1 0 -7.7 0Z"/><path class="bu2" d="M759.5 636.2a2.4 2.4 0 1 0 4.8 0a2.4 2.4 0 1 0 -4.8 0Z"/><path class="tk" d="M780.5 642.9l0 -9.6"/><path class="tp t1" d="M780.5 616.9L773.9 633.2L787.0 633.2ZM780.5 624.3L772.9 636.0L788.0 636.0Z"/><path class="bu" d="M774.1 644.8a3.9 3.9 0 1 0 7.8 0a3.9 3.9 0 1 0 -7.8 0Z"/><path class="bu2" d="M773.7 646.0a2.4 2.4 0 1 0 4.8 0a2.4 2.4 0 1 0 -4.8 0Z"/><path class="bn" d="M773.2 647.2L777.4 652.6M768.4 652.0L763.4 647.4"/><path class="bnb" d="M773.4 645.2L777.1 650.1M768.1 649.5L763.6 645.4"/><path class="bn" d="M790.2 655.2L783.4 654.2"/><path class="bnb" d="M789.8 652.9L783.8 652.1"/><path class="bn" d="M780.2 660.1L782.7 666.4"/><path class="bnb" d="M780.3 658.2L782.5 663.9"/><path class="tk" d="M788.1 668.3l0 -5.4"/><path class="tc t2" d="M782.8 659.8a5.3 5.3 0 1 0 10.6 0a5.3 5.3 0 1 0 -10.6 0Z"/><path class="tc td" d="M783.2 661.4a3.3 3.3 0 1 0 6.6 0a3.3 3.3 0 1 0 -6.6 0Z"/><path class="bn" d="M798.3 671.1L794.4 665.5"/><path class="bnb" d="M798.1 668.7L794.6 663.6"/><path class="bu" d="M774.6 665.3a4.3 4.3 0 1 0 8.6 0a4.3 4.3 0 1 0 -8.6 0ZM791.6 667.6a4.6 4.6 0 1 0 9.2 0a4.6 4.6 0 1 0 -9.2 0Z"/><path class="bu2" d="M774.2 666.7a2.7 2.7 0 1 0 5.4 0a2.7 2.7 0 1 0 -5.4 0ZM791.2 669.0a2.8 2.8 0 1 0 5.7 0a2.8 2.8 0 1 0 -5.7 0Z"/><path class="bn" d="M789.9 673.4L792.4 679.8"/><path class="bnb" d="M790.0 671.6L792.3 677.3"/><path class="bn" d="M805.9 684.7L803.7 678.3"/><path class="bnb" d="M805.8 682.2L803.8 676.4"/><path class="tk" d="M793.7 687.4l0 -5.6"/><path class="tc t2" d="M788.2 678.7a5.5 5.5 0 1 0 10.9 0a5.5 5.5 0 1 0 -10.9 0Z"/><path class="tc td" d="M788.7 680.4a3.4 3.4 0 1 0 6.8 0a3.4 3.4 0 1 0 -6.8 0Z"/><path class="bn" d="M791.2 687.9L793.7 694.2"/><path class="bnb" d="M791.3 686.0L793.5 691.7"/><path class="bu" d="M785.7 689.4a4.6 4.6 0 1 0 9.1 0a4.6 4.6 0 1 0 -9.1 0Z"/><path class="bu2" d="M785.3 690.9a2.8 2.8 0 1 0 5.6 0a2.8 2.8 0 1 0 -5.6 0Z"/><path class="bn" d="M809.8 698.6L807.8 692.1"/><path class="bnb" d="M809.7 696.1L807.9 690.2"/><path class="bn" d="M796.0 701.3L794.3 707.9M823.1 709.0L818.5 703.9"/><path class="bnb" d="M795.9 699.4L794.4 705.3M822.9 706.5L818.8 702.0"/><path class="bn" d="M796.8 715.8L795.1 722.4"/><path class="bnb" d="M796.7 713.9L795.2 719.8"/><path class="bn" d="M792.5 729.6L792.8 736.4M844.9 735.5L838.2 734.5"/><path class="bnb" d="M792.5 727.7L792.8 733.8M844.6 733.3L838.5 732.3"/><path class="bn" d="M856.5 746.8L852.6 741.2"/><path class="bnb" d="M856.3 744.4L852.8 739.3"/><path class="bn" d="M793.2 743.8L793.5 750.6"/><path class="bnb" d="M793.2 742.0L793.5 748.1"/><path class="bn" d="M872.8 755.8L870.2 749.5"/><path class="bnb" d="M872.6 753.3L870.3 747.6"/><path class="bn" d="M793.9 758.1L794.2 764.9"/><path class="bnb" d="M793.9 756.2L794.2 762.3"/><path class="bn" d="M886.2 766.8L884.2 760.3"/><path class="bnb" d="M886.1 764.3L884.3 758.4"/><path class="bn" d="M795.1 772.2L798.2 778.2M897.6 777.5L893.5 772.0"/><path class="bnb" d="M795.3 770.3L798.1 775.7M897.4 775.0L893.7 770.1"/><path class="bn" d="M801.5 786.6L806.4 791.2M905.6 790.8L901.3 785.5"/><path class="bnb" d="M801.7 784.6L806.2 788.8M905.4 788.4L901.5 783.6"/><path class="bn" d="M818.1 797.4L823.1 802.1"/><path class="bnb" d="M818.4 795.4L822.8 799.6"/><path class="bn" d="M914.1 804.1L911.4 797.9"/><path class="bnb" d="M914.0 801.6L911.6 796.0"/><path class="bn" d="M827.3 810.9L832.3 815.5"/><path class="bnb" d="M827.6 808.9L832.0 813.1"/><path class="bn" d="M837.6 822.4L837.0 829.2"/><path class="bnb" d="M837.6 820.6L837.0 826.6"/><path class="bn" d="M838.9 836.9L836.8 843.4M921.3 842.1L917.3 836.7"/><path class="bnb" d="M838.8 835.1L836.9 840.9M921.1 839.6L917.5 834.7"/><path class="bn" d="M829.9 850.5L827.7 856.9M924.2 855.8L925.9 849.2"/><path class="bnb" d="M829.8 848.6L827.8 854.4M924.3 853.3L925.9 847.4"/><path class="bn" d="M828.8 864.5L829.5 871.3M912.7 868.2L918.2 864.2"/><path class="bnb" d="M828.8 862.7L829.4 868.7M913.0 865.8L917.9 862.2"/><path class="bn" d="M892.2 875.9L898.4 873.1"/><path class="bnb" d="M892.5 873.5L898.1 871.0"/><path class="bn" d="M830.2 878.8L830.9 885.5"/><path class="bnb" d="M830.2 876.9L830.8 883.0"/><path class="bn" d="M880.2 883.9L879.2 890.7"/><path class="bnb" d="M880.2 882.1L879.2 888.1"/><path class="bn" d="M831.2 893.0L833.5 899.3"/><path class="bnb" d="M831.3 891.1L833.4 896.8"/><path class="bn" d="M885.7 898.1L886.5 904.9"/><path class="bnb" d="M885.7 896.2L886.4 902.3"/><path class="bn" d="M836.3 906.9L838.7 913.3M871.5 908.1L868.5 914.2M900.8 910.0L907.5 911.3"/><path class="bnb" d="M836.5 905.0L838.6 910.8M871.4 906.2L868.7 911.7M901.2 907.9L907.2 909.1"/><path class="bn" d="M867.6 917.7L862.1 913.7"/><path class="bnb" d="M867.3 915.3L862.4 911.7"/><path class="bn" d="M862.0 916.6L860.2 923.1"/><path class="bnb" d="M861.9 914.7L860.3 920.6"/><path class="bn" d="M841.5 920.9L843.8 927.2M846.2 927.0L840.0 924.1M866.1 921.0L862.0 926.5M915.1 920.6L920.1 925.2"/><path class="bnb" d="M841.6 919.0L843.7 924.7M845.9 924.6L840.3 922.0M865.9 919.1L862.2 924.0M915.3 918.7L919.8 922.8"/><path class="bn" d="M869.9 932.8L868.0 926.3"/><path class="bnb" d="M869.8 930.3L868.1 924.4"/><path class="bn" d="M860.5 937.0L854.3 934.1M921.2 932.7L922.2 939.5"/><path class="bnb" d="M860.2 934.6L854.6 932.1M921.3 930.9L922.2 936.9"/><path class="bn" d="M883.5 942.6L877.1 940.3"/><path class="bnb" d="M883.2 940.3L877.4 938.2"/><path class="bn" d="M901.8 952.6L895.5 950.0M927.0 946.8L930.0 953.0"/><path class="bnb" d="M901.5 950.2L895.8 947.9M927.2 944.9L929.9 950.5"/><path class="bn" d="M1150.3 956.0L1143.5 956.1M924.1 959.2L917.8 956.5"/><path class="bnb" d="M1149.9 953.8L1143.8 953.9M923.7 956.9L918.2 954.4"/><path class="bn" d="M1199.1 961.5L1192.3 960.9M1174.7 959.5L1167.9 959.2M1125.6 958.6L1118.8 958.7M1100.9 959.0L1094.1 959.1M1077.0 959.7L1070.2 960.8M941.2 959.1L946.5 963.4"/><path class="bnb" d="M1198.8 959.2L1192.7 958.8M1174.4 957.3L1168.3 957.0M1125.3 956.4L1119.2 956.5M1100.6 956.8L1094.5 956.9M1076.6 957.6L1070.6 958.6M941.5 957.2L946.2 961.0"/><path class="bn" d="M1247.4 966.4L1240.7 965.4M1223.6 963.5L1216.8 962.9M1053.5 963.6L1047.1 966.1"/><path class="bnb" d="M1247.1 964.2L1241.1 963.2M1223.2 961.2L1217.1 960.7M1053.1 961.6L1047.4 963.8"/><path class="bn" d="M1272.4 968.2L1265.7 966.9M941.5 969.6L935.2 967.0"/><path class="bnb" d="M1272.1 965.9L1266.1 964.7M941.2 967.2L935.5 964.9"/><path class="bn" d="M1294.7 974.7L1288.0 973.6M1035.2 974.0L1028.7 975.9M963.8 975.8L957.1 974.5M955.3 971.4L961.7 974.0"/><path class="bnb" d="M1294.4 972.5L1288.3 971.4M1034.9 971.9L1029.0 973.6M963.4 973.5L957.4 972.3M955.7 969.4L961.3 971.7"/><path class="bn" d="M988.3 977.2L981.5 976.6M978.2 977.8L984.9 979.1"/><path class="bnb" d="M988.0 975.0L981.9 974.4M978.5 975.7L984.5 976.9"/><path class="bn" d="M1013.2 980.4L1006.6 982.3"/><path class="bnb" d="M1012.8 978.3L1007.0 980.1"/></svg>